<svg width="40" height="40" xmlns="http://www.w3.org/2000/svg" xmlns:svg="http://www.w3.org/2000/svg" preserveAspectRatio="xMidYMid">
 <title>Arduino Logo</title>
 <style type="text/css">.arduino {
		fill: none;
		stroke: #00979c;
		stroke-width: 4;
		}

		#minus{
			stroke-width: 1
		}

		#plus{
			stroke-width: 1;
		}</style>
 <g class="layer">
  <title>Layer 1</title>
  <g id="svg_1">
   <path class="arduino" d="m10.06311,12.43084c-5.09934,-0.40622 -9.38417,5.62166 -7.27591,10.29653c2.03581,5.06377 9.70857,6.44398 13.36532,2.38276c3.53392,-3.46258 4.8991,-8.77418 9.20063,-11.51308c4.40023,-3.00182 11.49059,-0.16763 12.32419,5.17262c0.83789,5.11367 -4.67005,10.09483 -9.66999,8.57892c-3.68572,-0.83306 -6.33777,-3.97753 -7.84671,-7.28294c-1.85171,-3.16325 -4.27256,-6.53377 -8.04894,-7.42321c-0.67106,-0.15218 -1.36089,-0.21232 -2.04858,-0.21162l-0.00001,0.00001z" fill="black" id="infinity" stroke-width="59"/>
   <path class="arduino" d="m7.05917,19.67246l6.43701,0" fill="black" id="minus" stroke-width="25"/>
   <path class="arduino" d="m26.79934,19.67246l5.36418,0m-2.73573,-2.68209l0,5.36418" id="plus" stroke-width="32"/>
  </g>
 </g>
</svg>