<svg width="750" height="600" xmlns="http://www.w3.org/2000/svg" xmlns:svg="http://www.w3.org/2000/svg">
 <title>Arduino Logo</title>
 <style type="text/css">.arduino {
		fill: none;
		stroke: #00979c;
		stroke-width: 59;
		}

		#minus{
			stroke-width: 25
		}

		#plus{
			stroke-width: 32;
		}</style>
 <g class="layer">
  <title>Layer 1</title>
  <g id="svg_1">
   <path class="arduino" d="m189.75461,48.89396c-95.063,-7.573 -174.94153,104.8 -135.639,191.95c37.952,94.4 180.989,120.13 249.159,44.42c65.88,-64.55 91.33,-163.57 171.52,-214.629c82.03,-55.9606 214.21,-3.125 229.75,96.429c15.62,95.33 -87.06,188.19 -180.27,159.93c-68.71,-15.53 -118.15,-74.15 -146.28,-135.77c-34.52,-58.97 -79.65,-121.804 -150.05,-138.385c-12.51,-2.837 -25.37,-3.958 -38.19,-3.945z" fill="black" id="infinity" stroke-width="59"/>
   <path class="arduino" d="m133.75461,183.89396l120,0" fill="black" id="minus" stroke-width="25"/>
   <path class="arduino" d="m501.75461,183.89396l100,0m-51,-50l0,100" id="plus" stroke-width="32"/>
  </g>
 </g>
</svg>