<svg width="40" height="40" xmlns="http://www.w3.org/2000/svg" xmlns:svg="http://www.w3.org/2000/svg" xmlns:se="http://svg-edit.googlecode.com">
 <defs>
  <clipPath id="hexagon">
   <path d="m435.279,113.284l-188.088,-108.592c-10.835,-6.257 -28.567,-6.257 -39.402,0l-188.088,108.592c-10.836,6.255 -19.701,21.612 -19.701,34.124l0,217.185c0.843,14.571 8.286,26.639 19.701,34.123l188.088,108.592c10.835,6.257 28.567,6.257 39.402,0l188.088,-108.592c12.248,-8.146 19.219,-20.408 19.701,-34.123l0,-217.185c-0.44,-13.165 -8.323,-26.443 -19.701,-34.124z" id="svg_1"/>
  </clipPath>
  <linearGradient id="svg_10" x1="0.29042" x2="0.56097" y1="0.16759" y2="0.5967">
   <stop offset="0" stop-color="#A47EDE"/>
   <stop offset="1" stop-color="#9866D3"/>
  </linearGradient>
 </defs>
 <g class="layer">
  <title>Layer 1</title>
  <g clip-path="url(#hexagon)" id="svg_2"/>
  <g data-name="♯" id="sharp"/>
  <g data-name="♯" id="svg_20" transform="rotate(30 1024.5 291)"/>
  <g id="svg_3" transform="rotate(30 418.664 296.309)"/>
  <g id="svg_9"/>
  <g id="svg_4"/>
  <g id="svg_8"/>
  <g id="svg_17"/>
  <g id="svg_23">
   <path d="m36.9753,10.26899l-33.84228,19.53885l-0.00001,-19.53885l16.92115,-9.76943l8.46057,4.88471l8.46057,4.88471l0,0z" fill="#5d6cbf" id="svg_11" stroke-width="45"/>
   <path d="m19.94584,39.50044l-16.92114,-9.76943l16.92114,-9.76943l16.92115,9.76943l-16.92115,9.76943l0,0z" fill="#293693" id="svg_18" stroke-width="45"/>
   <polygon fill="url(#svg_10)" id="svg_16" opacity="0.65"/>
   <polygon fill="url(#svg_10)" id="svg_12" opacity="0.65"/>
   <path d="m9.80427,19.95723c-0.06332,-10.52477 14.03353,-15.17207 20.11269,-5.39269l-4.66472,2.69926c-2.81596,-4.65754 -9.80781,-2.99214 -10.05876,2.69336c0.07534,5.23996 6.94743,7.67406 10.05904,2.69308l4.66472,2.69919c-5.35744,9.30051 -19.84276,5.95436 -20.11297,-5.3922l0,0z" fill="#fff" id="svg_19"/>
   <path d="m36.85391,29.79949l-16.92115,-9.76943l16.92115,-9.76943l0,19.53886l0,0z" fill="#3949aa" id="svg_15" stroke-width="45"/>
   <rect fill="#ffffff" height="4.14286" id="svg_13" stroke-width="45" width="1.09023" x="27.6676" y="17.92857"/>
   <rect fill="#ffffff" height="5.42857" id="svg_14" stroke-width="45" transform="matrix(0 0.763158 -0.763158 0 47.9042 -4.98403)" width="1.42857" x="32.02335" y="23.08826"/>
   <rect fill="#ffffff" height="4.14286" id="svg_21" stroke-width="45" width="1.09023" x="33.0278" y="17.92857"/>
   <rect fill="#ffffff" height="5.42857" id="svg_22" stroke-width="45" transform="matrix(0 0.763158 -0.763158 0 47.9042 -4.98403)" width="1.42857" x="32.02335" y="15.97095"/>
  </g>
 </g>
</svg>