<svg width="40" height="40" xmlns="http://www.w3.org/2000/svg" xmlns:svg="http://www.w3.org/2000/svg">
 <title>CSS3 Logo Badge</title>
 <g class="layer">
  <title>Layer 1</title>
  <g id="svg_1">
   <polygon fill="#264de4" id="polygon2989" points="34.03366756439209,7.977136135101318 31.47666835784912,36.622093200683594 19.98282527923584,39.808563232421875 8.520627975463867,36.626583099365234 5.966331481933594,7.977136135101318 "/>
   <polygon fill="#2965f1" id="polygon2991" points="29.28758144378662,34.7980842590332 31.472722053527832,10.319655418395996 19.999995231628418,10.319655418395996 19.999995231628418,37.37296676635742 "/>
   <polygon fill="#ebebeb" id="polygon2993" points="11.822003364562988,20.945327758789062 12.136931419372559,24.45901870727539 19.999995231628418,24.45901870727539 19.999995231628418,20.945327758789062 "/>
   <polygon fill="#ebebeb" id="polygon2995" points="19.999995231628418,13.833419799804688 19.987854957580566,13.833419799804688 11.189215660095215,13.833419799804688 11.508625984191895,17.34720230102539 19.999995231628418,17.34720230102539 "/>
   <polygon fill="#ebebeb" id="polygon2997" points="19.999995231628418,33.72663879394531 19.999995231628418,30.070873260498047 19.98460102081299,30.074974060058594 16.071330070495605,29.018308639526367 15.821173667907715,26.2159423828125 13.919625282287598,26.2159423828125 12.293927192687988,26.2159423828125 12.786200523376465,31.733013153076172 19.983826637268066,33.73112869262695 "/>
   <path d="m12.57179,0.19144l4.25575,0l0,1.77968l-2.47607,0l0,1.77968l2.47607,0l0,1.77968l-4.25575,0l0,-5.33903z" fill="black" id="path2999"/>
   <path d="m17.67868,0.19144l4.25575,0l0,1.54754l-2.47607,0l0,0.30951l2.47607,0l0,3.55935l-4.25575,0l0,-1.62492l2.47607,0l0,-0.30951l-2.47607,0l0,-3.48197z" id="path3001"/>
   <path d="m22.78558,0.19144l4.25575,0l0,1.54754l-2.47607,0l0,0.30951l2.47607,0l0,3.55935l-4.25575,0l0,-1.62492l2.47607,0l0,-0.30951l-2.47607,0l0,-3.48197z" id="path3003"/>
   <polygon fill="#ffffff" id="polygon3005" points="24.314627647399902,24.45901870727539 23.906771659851074,29.01606559753418 19.987854957580566,30.07381248474121 19.987854957580566,33.72941970825195 27.191201210021973,31.733013153076172 27.24405002593994,31.13937759399414 28.069741249084473,21.888853073120117 28.15547466278076,20.945327758789062 28.789816856384277,13.833419799804688 19.987854957580566,13.833419799804688 19.987854957580566,17.34720230102539 24.939064979553223,17.34720230102539 24.61934757232666,20.945327758789062 19.987854957580566,20.945327758789062 19.987854957580566,24.45901870727539 "/>
  </g>
 </g>
</svg>