<svg width="40" height="40" xmlns="http://www.w3.org/2000/svg" xmlns:svg="http://www.w3.org/2000/svg">
 <g class="layer">
  <title>Layer 1</title>
  <g id="svg_1">
   <path d="m34.81895,10.53776c-0.00694,4.49818 -0.00592,7.73045 -0.00636,13.19513c-0.25951,5.37033 -0.19911,9.64685 -2.1655,12.21649c-0.38782,0.50673 -1.21142,1.24595 -1.9005,1.76483c-0.57869,0.43564 -1.6816,1.31906 -2.30768,1.3575c-0.63114,0.03875 -2.25262,-0.8762 -2.9865,-1.22182c-0.96361,-0.45385 -1.85441,-1.05652 -2.85053,-1.35735c2.32357,-1.43986 4.52924,-2.51936 5.42971,-5.42986c0.78315,-2.5312 0.67882,-6.19913 0.67882,-9.77371c0,-3.52965 0.01575,-7.63321 0.01575,-10.74961l6.09279,-0.00139l0,-0.0002z" fill="#000000" fill-rule="evenodd" id="path2860"/>
   <path d="m34.81893,7.30713l-6.10853,0l0,-6.38004l6.10853,0l0,6.38004z" fill="#000000" fill-rule="evenodd" id="path2840"/>
   <path d="m11.47075,20.47455c-0.01993,3.79031 2.75936,6.04987 7.19454,5.02253l0,-10.04507c-4.49124,-1.36776 -7.17575,1.3994 -7.19454,5.02253m7.33021,-19.54743l6.10853,0l0,28.91382c-5.85524,0.95726 -11.46311,1.56441 -15.47493,-0.67882c-5.16558,-2.8881 -5.58085,-12.06593 -1.49332,-16.1536c2.07244,-2.0723 6.24464,-3.53123 10.72403,-2.57918l0,-9.09489c-0.0117,-0.19275 -0.02254,-0.38464 0.13568,-0.40732" fill="#000000" fill-rule="evenodd" id="path2838"/>
  </g>
 </g>
</svg>