<svg width="40" height="40" xmlns="http://www.w3.org/2000/svg" xmlns:svg="http://www.w3.org/2000/svg">
 <g class="layer">
  <title>Layer 1</title>
  <g fill="none" fill-rule="evenodd" id="svg_1">
   <circle cx="20" cy="20" fill="#2B2E3A" id="svg_2" r="19.8"/>
   <g fill="#9FEAF9" fill-rule="nonzero" id="svg_3">
    <path d="m15.7464,11.28955c-4.02265,-0.7326 -7.20333,0.03419 -8.471,2.22982c-0.94591,1.63845 -0.67552,3.81073 0.65588,6.13274a0.41255,0.41255 0 1 0 0.71558,-0.41039c-1.19914,-2.09168 -1.43256,-3.96634 -0.65696,-5.3098c1.05311,-1.82392 3.89008,-2.50795 7.60861,-1.83073a0.41255,0.41255 0 0 0 0.14788,-0.81165zm-5.72328,11.18499c1.62654,1.78741 3.73973,3.46407 6.14976,4.85533c5.83528,3.36909 12.04753,4.26953 15.1091,2.18202a0.41255,0.41255 0 1 0 -0.46484,-0.68155c-2.74013,1.86832 -8.64115,1.01289 -14.23171,-2.21482c-2.33795,-1.3498 -4.38431,-2.9734 -5.95207,-4.69631a0.41255,0.41255 0 1 0 -0.61024,0.55533z" id="svg_4"/>
    <path d="m30.30528,21.97273c2.63402,-3.11169 3.55364,-6.24133 2.2886,-8.43233c-0.93075,-1.61231 -2.89853,-2.46355 -5.51384,-2.49758a0.41255,0.41255 0 0 0 -0.01067,0.82495c2.35202,0.03063 4.0474,0.764 4.81016,2.08519c1.05064,1.8199 0.23048,4.61077 -2.20399,7.48672a0.41255,0.41255 0 1 0 0.62973,0.53305zm-6.76928,-10.54582c-2.38157,0.51031 -4.91659,1.50805 -7.35106,2.91354c-6.02384,3.47784 -9.95337,8.60619 -9.40763,12.32473a0.41255,0.41255 0 1 0 0.81629,-0.11988c-0.48464,-3.30165 3.24024,-8.1627 9.0039,-11.49034c2.36161,-1.36357 4.8162,-2.32959 7.11129,-2.82135a0.41255,0.41255 0 1 0 -0.17279,-0.8067z" id="svg_5"/>
    <path d="m13.77692,29.24304c1.37734,3.84553 3.63036,6.21333 6.16383,6.21333c1.84774,0 3.55719,-1.25962 4.89029,-3.47707a0.41255,0.41255 0 1 0 -0.70708,-0.42508c-1.19805,1.99284 -2.6696,3.07704 -4.18321,3.07704c-2.10452,0 -4.11407,-2.11179 -5.38699,-5.6662a0.41255,0.41255 0 1 0 -0.77669,0.27797l-0.00015,0zm12.5795,-0.75225c0.71311,-2.27824 1.09596,-4.90638 1.09596,-7.64512c0,-6.83394 -2.39193,-12.72506 -5.79877,-14.23775a0.41255,0.41255 0 0 0 -0.33474,0.75395c3.03853,1.34934 5.30841,6.94021 5.30841,13.4838c0,2.65707 -0.37079,5.20214 -1.05806,7.3987a0.41255,0.41255 0 1 0 0.78736,0.24642l-0.00015,0zm7.76903,-0.40404c0,-1.09039 -0.88388,-1.97428 -1.97428,-1.97428c-1.09039,0 -1.97428,0.88388 -1.97428,1.97428c0,1.09039 0.88388,1.97428 1.97428,1.97428c1.09039,0 1.97428,-0.88388 1.97428,-1.97428zm-0.82495,0a1.14933,1.14933 0 1 1 -2.29866,0a1.14933,1.14933 0 0 1 2.29866,0zm-25.59862,1.97428c1.09055,0 1.97443,-0.88388 1.97443,-1.97428c0,-1.09039 -0.88404,-1.97428 -1.97443,-1.97428c-1.09024,0 -1.97428,0.88388 -1.97428,1.97428c0,1.09039 0.88404,1.97428 1.97428,1.97428zm0,-0.82495a1.14933,1.14933 0 1 1 0,-2.29866a1.14933,1.14933 0 0 1 0,2.29866z" id="svg_6"/>
    <path d="m19.94075,8.62181c1.09039,0 1.97428,-0.88388 1.97428,-1.97428c0,-1.09039 -0.88388,-1.97428 -1.97428,-1.97428c-1.09039,0 -1.97428,0.88388 -1.97428,1.97428c0,1.09039 0.88388,1.97428 1.97428,1.97428zm0,-0.82495a1.14933,1.14933 0 1 1 0,-2.29866a1.14933,1.14933 0 0 1 0,2.29866zm0.30149,14.44503c-0.77112,0.1666 -1.53079,-0.32345 -1.6977,-1.09457a1.42869,1.42869 0 0 1 1.09457,-1.69785c0.77112,-0.1666 1.53079,0.32345 1.69785,1.09457c0.1666,0.77112 -0.32345,1.53094 -1.09472,1.69785z" id="svg_7"/>
   </g>
  </g>
 </g>
</svg>