<svg width="40" height="40" xmlns="http://www.w3.org/2000/svg" xmlns:svg="http://www.w3.org/2000/svg" preserveAspectRatio="xMidYMid">
 <g class="layer">
  <title>Layer 1</title>
  <path d="m1.00535,23.11835l0,-4.2836l5.34886,0l0,-0.25034l-5.34886,0l0,-3.90846l5.68641,0l0,-0.25034l-5.93675,0l0,8.94308l5.98711,0l0,-0.25034l-5.73602,0l-0.00075,0zm10.55939,-6.18709l-2.21773,2.91763l-2.16661,-2.91838l-0.32552,0l2.34252,3.10632l-2.56805,3.33185l0.30071,0l2.4177,-3.14391l2.42973,3.14391l0.31274,0l-2.58008,-3.33185l2.3553,-3.10632l-0.30071,0l0,0.00075zm1.27801,8.64237l0,-4.00845l0.02406,0c0.15035,0.58413 0.4473,1.05398 0.88935,1.40882c0.44355,0.35484 1.00662,0.53225 1.69149,0.53225c0.44204,0 0.83447,-0.08946 1.17728,-0.26913a2.50491,2.50491 0 0 0 0.85777,-0.73223a3.40929,3.40929 0 0 0 0.52624,-1.07729a4.52341,4.52341 0 0 0 0.18118,-1.29004c0,-0.48489 -0.0624,-0.93145 -0.18794,-1.34041a3.20856,3.20856 0 0 0 -0.54428,-1.06451c-0.23831,-0.30071 -0.52624,-0.53451 -0.86454,-0.7014a2.55377,2.55377 0 0 0 -1.1457,-0.25109c-0.32627,0 -0.62848,0.04811 -0.90814,0.14434a2.43048,2.43048 0 0 0 -0.74576,0.40671a2.75675,2.75675 0 0 0 -0.56383,0.62021a2.85373,2.85373 0 0 0 -0.36311,0.78259l-0.02481,0l0,-1.8035l-0.25034,0l0,8.64388l0.25034,0l0.00075,-0.00075zm2.60489,-2.30493c-0.78485,0 -1.41559,-0.26913 -1.89146,-0.80816c-0.47587,-0.53827 -0.71418,-1.31259 -0.71418,-2.32298c0,-0.41799 0.05864,-0.81417 0.17516,-1.19006c0.11728,-0.37589 0.28567,-0.70591 0.50745,-0.99008a2.43574,2.43574 0 0 1 0.82018,-0.6766a2.38011,2.38011 0 0 1 1.10285,-0.24959c0.41723,0 0.78259,0.08269 1.09533,0.25034a2.22224,2.22224 0 0 1 0.77658,0.68261a3.17624,3.17624 0 0 1 0.46384,0.98933a4.35802,4.35802 0 0 1 0.15637,1.18404c0,0.37589 -0.04811,0.74877 -0.14359,1.12014a3.20481,3.20481 0 0 1 -0.44505,1.00286a2.42071,2.42071 0 0 1 -0.77057,0.72621c-0.31274,0.18794 -0.69088,0.28191 -1.13292,0.28191zm4.12046,0.09999l0,-3.64459c0,-0.35108 0.05037,-0.69313 0.15035,-1.02767a2.51693,2.51693 0 0 1 0.46384,-0.88258a2.17262,2.17262 0 0 1 0.79538,-0.60142c0.32101,-0.14584 0.70291,-0.20674 1.1457,-0.18118l0,-0.25109c-0.3834,-0.00752 -0.7202,0.03383 -1.00813,0.12555a2.44927,2.44927 0 0 0 -0.74501,0.37589c-0.20899,0.15787 -0.37589,0.34431 -0.50143,0.55706a2.49213,2.49213 0 0 0 -0.27515,0.68261l-0.02556,0l0,-1.59075l-0.25034,0l0,6.43818l0.25034,0zm2.86876,-3.16872l5.3857,0a4.46177,4.46177 0 0 0 -0.13156,-1.27801a3.17849,3.17849 0 0 0 -0.50068,-1.09007c-0.23004,-0.3165 -0.52624,-0.57135 -0.88935,-0.76305c-0.36386,-0.19245 -0.79538,-0.28868 -1.29681,-0.28868c-0.3586,0 -0.70967,0.07518 -1.05248,0.22553a2.61617,2.61617 0 0 0 -0.90137,0.6578a3.33787,3.33787 0 0 0 -0.62623,1.0585c-0.15862,0.41723 -0.23831,0.89311 -0.23831,1.42837c0,0.47512 0.05488,0.92017 0.16313,1.33364a3.12512,3.12512 0 0 0 0.50068,1.07654c0.22553,0.30522 0.51572,0.54128 0.87055,0.70817c0.35484,0.16689 0.78335,0.24658 1.28403,0.23756c0.73523,0 1.35319,-0.20674 1.85387,-0.61946c0.50068,-0.41347 0.79688,-0.9961 0.88935,-1.74787l-0.25034,0c-0.10901,0.71042 -0.38641,1.24268 -0.83296,1.59752c-0.44655,0.35484 -1.00813,0.53225 -1.68472,0.53225c-0.45933,0 -0.848,-0.07969 -1.16525,-0.23831c-0.31725,-0.15787 -0.57586,-0.37589 -0.77658,-0.65103a2.8402,2.8402 0 0 1 -0.4443,-0.97054a5.22482,5.22482 0 0 1 -0.15637,-1.20885zm5.1346,-0.25034l-5.1346,0c0.02481,-0.45106 0.10826,-0.85627 0.25034,-1.21562a3.0131,3.0131 0 0 1 0.55706,-0.92017a2.32899,2.32899 0 0 1 0.80214,-0.58262a2.42146,2.42146 0 0 1 0.98257,-0.19997c0.41799,0 0.7856,0.07668 1.10285,0.23155a2.27561,2.27561 0 0 1 0.79538,0.63224a2.78908,2.78908 0 0 1 0.48189,0.93295a3.81149,3.81149 0 0 1 0.16313,1.12164l-0.00075,0zm5.44885,-1.11488l0.25109,0c0,-0.71794 -0.20899,-1.24042 -0.62623,-1.56594c-0.41799,-0.32552 -0.98557,-0.48865 -1.70352,-0.48865c-0.40145,0 -0.73899,0.05037 -1.01489,0.15035a2.02828,2.02828 0 0 0 -0.6766,0.38867c-0.17516,0.15787 -0.30071,0.33379 -0.37589,0.52624c-0.07518,0.1917 -0.11277,0.37589 -0.11277,0.55105c0,0.35033 0.06315,0.62999 0.18794,0.83898c0.12555,0.20899 0.32176,0.37138 0.58939,0.48865a4.51514,4.51514 0 0 0 0.62623,0.22553c0.23305,0.06616 0.50519,0.13757 0.81417,0.21275l0.81417,0.19997c0.26688,0.06766 0.50294,0.15712 0.70667,0.26989a1.52986,1.52986 0 0 1 0.50143,0.43152c0.13006,0.17591 0.19471,0.40596 0.19471,0.68938c0,0.27515 -0.06465,0.50895 -0.19471,0.7014a1.56519,1.56519 0 0 1 -0.49467,0.46986a2.20194,2.20194 0 0 1 -0.66983,0.26312a3.34238,3.34238 0 0 1 -0.7202,0.08119c-0.75929,0 -1.34267,-0.16915 -1.74712,-0.50745c-0.40596,-0.3383 -0.60743,-0.87055 -0.60743,-1.59676l-0.25109,0c0,0.80966 0.21952,1.40281 0.6578,1.77869s1.08781,0.56383 1.94709,0.56383c0.2759,0 0.55406,-0.03157 0.83372,-0.09472a2.31546,2.31546 0 0 0 0.75177,-0.30672a1.69901,1.69901 0 0 0 0.53827,-0.55105c0.13757,-0.22553 0.20674,-0.50068 0.20674,-0.82695c0,-0.30823 -0.06014,-0.55932 -0.18193,-0.75177a1.52309,1.52309 0 0 0 -0.47587,-0.47512a2.52595,2.52595 0 0 0 -0.66381,-0.29469c-0.24658,-0.07067 -0.49467,-0.13983 -0.74501,-0.20674c-0.35108,-0.09172 -0.6578,-0.17065 -0.92092,-0.23756a5.58567,5.58567 0 0 1 -0.73298,-0.23831a1.24268,1.24268 0 0 1 -0.51947,-0.39468c-0.1293,-0.17065 -0.19396,-0.41498 -0.19396,-0.73223c0,-0.05864 0.01654,-0.16313 0.04962,-0.31349c0.03383,-0.15035 0.11277,-0.30296 0.23831,-0.45708c0.12555,-0.15487 0.31725,-0.29244 0.57586,-0.41347c0.25936,-0.12028 0.6142,-0.18118 1.06526,-0.18118c0.30823,0 0.59014,0.03308 0.84499,0.09999c0.25485,0.06691 0.47362,0.17291 0.6578,0.3195a1.45318,1.45318 0 0 1 0.4255,0.55706c0.10074,0.22553 0.15035,0.50143 0.15035,0.82695zm5.79992,0l0.25034,0c0,-0.71794 -0.20899,-1.24042 -0.62623,-1.56594c-0.41799,-0.32552 -0.98557,-0.48865 -1.70352,-0.48865c-0.40069,0 -0.73899,0.05037 -1.01489,0.15035a2.02828,2.02828 0 0 0 -0.6766,0.38867c-0.17516,0.15787 -0.30071,0.33379 -0.37589,0.52624c-0.07518,0.1917 -0.11277,0.37589 -0.11277,0.55105c0,0.35033 0.06315,0.62999 0.18794,0.83898c0.12555,0.20899 0.32176,0.37138 0.58939,0.48865a4.51514,4.51514 0 0 0 0.62623,0.22553c0.23305,0.06616 0.50519,0.13757 0.81417,0.21275l0.81342,0.19997c0.26688,0.06766 0.50294,0.15712 0.70742,0.26989a1.52986,1.52986 0 0 1 0.50143,0.43152c0.1293,0.17591 0.19396,0.40596 0.19396,0.68938c0,0.27515 -0.06465,0.50895 -0.19396,0.7014a1.56519,1.56519 0 0 1 -0.49542,0.46986a2.20194,2.20194 0 0 1 -0.66983,0.26312a3.34238,3.34238 0 0 1 -0.7202,0.08119c-0.75929,0 -1.34267,-0.16915 -1.74712,-0.50745c-0.40521,-0.3383 -0.60743,-0.87055 -0.60743,-1.59676l-0.25109,0c0,0.80966 0.21952,1.40281 0.6578,1.77869s1.08781,0.56383 1.94784,0.56383c0.2759,0 0.5533,-0.03157 0.83296,-0.09472a2.31546,2.31546 0 0 0 0.75177,-0.30672a1.69901,1.69901 0 0 0 0.53827,-0.55105c0.13757,-0.22553 0.20674,-0.50068 0.20674,-0.82695c0,-0.30823 -0.06014,-0.55932 -0.18193,-0.75177a1.52309,1.52309 0 0 0 -0.47587,-0.47512a2.52595,2.52595 0 0 0 -0.66381,-0.29469c-0.24583,-0.07067 -0.49467,-0.13983 -0.74501,-0.20674c-0.35108,-0.09172 -0.6578,-0.17065 -0.92092,-0.23756a5.58567,5.58567 0 0 1 -0.73223,-0.23831a1.24268,1.24268 0 0 1 -0.52023,-0.39468c-0.1293,-0.17065 -0.19396,-0.41498 -0.19396,-0.73223c0,-0.05864 0.01654,-0.16313 0.05037,-0.31349c0.03308,-0.15035 0.11277,-0.30296 0.23756,-0.45708c0.12555,-0.15487 0.31725,-0.29244 0.57661,-0.41347c0.25861,-0.12028 0.61345,-0.18118 1.06451,-0.18118c0.30823,0 0.59089,0.03308 0.84499,0.09999c0.2556,0.06691 0.47362,0.17291 0.6578,0.3195a1.45318,1.45318 0 0 1 0.42625,0.55706c0.09999,0.22553 0.15035,0.50143 0.15035,0.82695l0.00075,0z" fill="#222" id="svg_1"/>
 </g>
</svg>