<svg width="40" height="40" xmlns="http://www.w3.org/2000/svg" xmlns:svg="http://www.w3.org/2000/svg" preserveAspectRatio="xMidYMid">
 <g class="layer">
  <title>Layer 1</title>
  <path d="m12.03376,33.79298c-1.5081,-1.18649 -3.11745,-2.32352 -4.21693,-3.92562c-2.3142,-2.8251 -4.09549,-6.09533 -5.31331,-9.53258c-0.73644,-2.23523 -0.9884,-4.6315 -1.93821,-6.77999c-0.99228,-1.56093 0.17091,-3.26609 1.88046,-3.76197c0.76052,-0.14656 2.09876,-0.86462 0.48346,-0.35088c-1.44855,1.06219 -1.58811,-0.96509 -0.10306,-1.09353c1.01352,-0.1344 1.38666,-0.96379 1.03967,-1.71033c-1.08835,-0.71003 2.63814,-1.48894 0.76286,-2.54803c-1.9522,-2.10704 2.73188,-2.51255 1.57595,-0.11938c-0.2763,1.84007 3.27412,-0.33793 2.44963,1.78725c0.83769,1.02077 3.13583,0.2328 3.07809,1.66399c1.21989,0.0839 1.63861,1.10958 2.78263,1.18856c1.18752,0.53602 3.33808,0.95784 3.74151,2.29503c-1.17717,0.93169 -3.90232,-1.92474 -4.03386,0.65462c0.35605,3.81116 0.26516,7.73705 1.65907,11.36617c0.65928,2.19716 2.25853,3.92665 3.70189,5.63829c1.38174,1.6759 3.25314,2.85644 5.16079,3.84975c1.67305,0.78901 3.47661,1.31183 5.30037,1.64068c0.73929,-0.56554 2.04516,-2.66844 3.19824,-1.78232c0.05567,0.99746 -2.28883,2.08374 -0.11005,1.97343c1.28049,-0.38634 2.16763,0.98918 3.22155,-0.25196c0.97104,1.15024 4.03593,-0.73437 3.34506,1.6166c-0.93454,0.60282 -2.2971,0.23848 -3.23268,1.06815c-1.54254,-0.77088 -2.77072,0.6888 -4.47899,0.50469c-1.89653,0.33974 -3.8267,0.47646 -5.74938,0.47931c-3.155,-0.24885 -6.37654,-0.35398 -9.37774,-1.45243c-1.69117,-0.49148 -3.34092,-1.4545 -4.82702,-2.41752l0,0l0.00001,0zm2.6643,1.15516c1.65078,0.71314 3.2653,1.46564 5.07482,1.69325c2.87067,0.39852 5.83534,1.01352 8.71612,0.45316c-1.30379,-0.58859 -2.65212,0.22865 -3.951,-0.42079c-1.55756,0.33482 -3.22957,-0.08597 -4.81381,-0.29339c-1.80045,-0.80196 -3.74436,-1.35325 -5.43062,-2.39525c-2.10808,-0.76959 1.08939,0.98736 1.6588,1.13004c1.317,0.74732 -1.44855,-0.3835 -1.83903,-0.69397c-1.10337,-0.61914 -1.24398,-0.48967 -0.10901,0.13854c0.22839,0.13361 0.45419,0.27422 0.69372,0.38842l0,0l0.00001,0zm-3.14179,-2.2202c1.60029,0.59273 -0.007,-1.12486 -0.73929,-1.02568c-0.32472,-0.56347 -1.24112,-0.91952 -0.5948,-1.22196c-1.16215,0.4037 -1.21782,-1.53451 -1.76394,-1.25718c-1.23,-0.38842 -0.47853,-1.7642 -1.94417,-2.60966c-0.13361,-0.89026 -1.45553,-1.66192 -1.87632,-3.00429c-0.18618,-0.68776 -1.49412,-2.66119 -0.69087,-0.82448c0.68362,1.76809 1.88642,3.28344 2.88776,4.79568c0.77684,1.44026 1.69532,2.94654 3.11046,3.84483c0.47749,0.45808 0.93765,1.15904 1.61116,1.30276l0,0l0,-0.00002zm-4.6082,-5.06059c0.05541,-0.24185 0.29235,0.52281 0,0l0,0zm6.52518,5.77061c0.35398,-0.15874 -0.50987,-0.20016 0,0l0,0zm0.86773,0.31669c-0.08985,-0.4371 -0.39645,0.24471 0,0l0,0zm1.08758,0.45316c0.51685,-0.49278 -0.79807,-0.31074 0,0l0,0zm1.86312,1.03864c0.31462,-0.46429 -1.00652,-0.17479 0,0l0,0zm-3.5776,-2.49417c0.803,-0.51997 -1.03889,-0.00725 0,0l0,0zm0.81516,0.40655c-0.0233,-0.27422 -0.29028,0.12326 0,0l0,0zm4.07529,2.54388c0.65539,0.4138 3.82671,0.90631 1.84111,0.16986c-0.33301,0.06992 -3.68196,-0.94774 -1.84111,-0.16986l0,0zm-6.4695,-5.03935c-0.06371,-0.275 -1.01766,-0.30452 0,0l0,0zm1.89653,1.10674c0.49458,-0.34492 -1.02464,-0.26619 0,0l0,0zm1.59614,0.97804c0.70899,-0.26698 -1.14894,-0.26801 0,0l0,0zm-4.26562,-2.92531c0.76881,0.58962 3.1014,0.07587 1.17743,-0.35191c-0.87498,-0.46637 -2.84737,-0.7859 -1.50292,0.28121l0.32549,0.07069l0,0l0,0.00001zm5.34697,3.26324c0.32058,-0.54534 -1.34341,-0.31177 0,0l0,0zm-1.62463,-1.29085c1.87943,0.5311 -1.58086,-1.18959 -0.46403,-0.19628l0.24781,0.11238l0.21622,0.0839l0,0zm3.25728,1.88253c1.78025,0.01709 -1.60832,-0.24574 0,0l0,0zm-7.66429,-4.88476c-0.06992,-0.33171 -0.43891,0.02745 0,0l0,0zm10.67557,6.57386c0.04739,-0.59868 -0.58082,0.44617 0,0l0,0zm-7.63709,-4.7136c-0.10824,-0.31565 -0.55622,-0.01321 0,0l0,0zm-2.86964,-2.06846c1.0218,-0.06163 -1.39986,-0.45005 0,0l0,0zm-3.3997,-2.19716c-0.1274,-0.49044 -1.11165,-0.88094 0,0l0,0zm8.92458,5.66366c-0.18696,-0.21363 -0.08804,0.04635 0,0l0,0zm5.55413,3.40877c-0.01709,-0.32679 -0.30245,0.12326 0,0l0,0zm-6.04561,-3.91656c0.10021,-0.42079 -0.87187,-0.12766 0,0l0,0zm-4.13822,-2.62287c0.76079,-0.08105 -1.21886,-0.51401 0,0l0,0zm6.99983,4.34952c1.18545,-0.46947 -1.15516,-0.22865 0,0l0,0zm-3.64052,-2.47112c1.36543,0.17582 -1.62541,-0.92962 -0.30038,-0.09917l0.30038,0.09917l0,0zm4.74597,2.91806c1.27557,-0.76156 0.85478,1.78543 2.16375,0.21544c1.29058,-0.94256 -1.11476,1.16526 0.47542,0.16806c1.15102,-0.76984 2.85021,0.36511 3.92355,0.73437c0.77166,-0.03755 1.52235,0.66756 2.3142,0.23848c1.52338,-0.41069 -2.97969,-0.60878 -1.79941,-1.33616c-1.39391,0.40577 -2.42348,-0.48346 -3.10942,-1.37656c-1.56377,-0.36123 -3.37122,-1.16034 -4.1522,-2.54492c-0.31851,-0.51893 0.45937,0.0738 -0.275,-0.7758c-0.94179,-0.83769 -1.41203,-1.78957 -2.04438,-2.80802c-0.75561,-0.40266 -0.84468,-1.58915 -0.92056,-0.03936c0.00621,-0.9783 -0.91227,-1.6368 -1.13677,-1.36361c-0.00414,-0.94179 0.98322,-0.46947 0.29235,-1.16629c-0.14863,-0.97623 -0.6383,-1.99363 -0.78513,-3.09622c-0.22839,-0.5311 -0.03237,-1.66891 -0.78072,-0.46637c-0.27215,1.27142 -0.09012,-1.5617 0.33378,-0.6282c0.55622,-0.95266 -0.20043,-0.84054 -0.23073,-0.70899c0.36227,-0.80402 0.22968,-1.9452 -0.09503,-1.51017c0.19318,-0.85271 0.30556,-3.13765 -0.28821,-2.73214c0.35993,-0.89207 0.68284,-4.08048 -0.88119,-2.86446c-0.63312,0.00907 -1.73054,0.22969 -2.24843,0.4876c1.62541,0.89621 -0.16391,0.32368 -0.82655,0.181c-0.08597,0.82941 -0.74136,0.47128 -1.56067,0.47931c1.30897,0.16184 -0.63727,1.33824 -1.38666,0.88119c-0.9752,0.46532 0.84054,1.62851 0.01916,1.98845c0.10124,0.5412 -1.49308,-0.19602 -1.36853,1.05624c-0.94593,-0.39878 -0.12947,1.4848 0.34388,0.84753c1.60934,0.43607 1.13288,1.42835 1.17329,2.37195c-0.26205,0.54922 -1.29473,-1.29162 -0.22969,-1.20668c-0.84054,-1.36465 -0.92936,-0.49355 -1.62748,0.14061c-0.16184,0.04557 1.78025,0.90217 0.5614,1.32503c1.0723,0.16598 1.10363,1.10467 1.32217,1.69842c0.64426,0.67144 0.51168,-0.74162 1.2836,0.06578c-0.48863,-0.71935 -2.58558,-2.02625 -0.89724,-1.60728c-0.00907,-0.72324 -0.30556,-1.3069 0.21234,-1.29292c0.51297,-0.92754 -0.53706,2.28805 0.61811,1.10881c0.31954,-0.13957 0.39955,-0.92858 0.97415,0.07483c0.83432,0.82138 0.30142,1.41591 -0.87601,0.66342c0.21027,0.71521 1.57491,0.97001 1.31803,2.08788c0.27189,0.98322 0.65228,0.62095 0.984,0.56424c0.25998,0.95499 0.40784,0.25299 0.42001,-0.20223c1.19038,0.25506 0.91124,0.95888 1.28437,1.45062c0.82034,0.37004 -1.17432,-2.50971 0.23382,-0.86592c1.48169,1.33824 0.55622,1.89653 -0.77373,1.68212c0.84157,-0.06784 1.11244,1.13806 2.16556,1.0956c0.95991,0.45703 1.61039,2.21114 -0.04453,1.48065c-0.57357,-0.5179 -2.60577,-1.1562 -0.94567,-0.17194c1.5314,0.71003 2.74922,1.13392 4.22704,2.02521c1.05702,0.75457 1.51406,1.61919 1.91465,1.79036c-0.88896,0.42467 -2.67828,-0.33896 -1.34936,-0.57252c-0.82941,-0.1507 -1.76186,-0.57045 -0.96794,0.46222c0.67559,0.5645 2.39214,0.50469 2.70081,0.56838c-0.26101,0.5746 -0.70899,0.62018 0.0101,0.66471c-0.80221,0.42778 0.25791,0.49458 0.33171,0.73826l0,0l-0.00001,-0.00002zm-1.64068,-4.63358c-0.48863,-0.5109 -0.615,-1.46667 -0.08701,-0.63546c0.27112,0.10928 0.86696,1.563 0.08701,0.63546l0,0zm5.34387,3.39452c0.30452,-0.0202 0.00907,0.2315 0,0l0,0zm-6.11449,-4.64679c-0.01942,-0.77192 0.17582,0.59557 0,0l0,0zm-0.5311,-0.71417c-0.615,-1.18649 0.77373,0.33585 0,0l0,0zm-6.4374,-4.44248c0.36123,-0.09633 0.17816,0.61681 0,0l0,0zm5.12351,2.77642c0.22139,-0.83251 0.25998,0.69812 0,0l0,0zm-3.61929,-2.5167c-0.2548,-0.45911 0.53317,0.43114 0,0l0,0zm3.10528,0.99539c-0.58159,-1.30276 0.41275,-0.7121 0.12947,0.21337l-0.12947,-0.21337l0,0zm-5.35578,-3.57165c-0.25998,-0.42778 -0.68983,-1.68212 -0.55129,-2.06535c0.12429,0.62406 1.32606,2.68449 0.58859,0.85375c-0.81413,-1.53452 0.97416,0.49744 1.15827,0.88094c0.08597,0.38039 -0.50287,-0.1041 -0.10435,0.789c-0.72712,-1.01662 -0.42882,0.5614 -1.0912,-0.45833l0,0l-0.00001,0zm-1.65492,-1.14092c0.06785,-0.99436 0.37832,0.6818 0,0l0,0zm0.74447,0.25687c0.35502,-0.75043 0.60179,1.04589 0,0l0,0zm-1.79139,-1.38562c-0.61603,-0.61318 -1.06219,-1.17743 0.02926,-0.38039c0.41975,0.01605 -0.93454,-1.2836 0.10124,-0.41276c1.08835,0.19836 0.53706,1.78543 -0.13051,0.79315l0,0l0,0.00001zm0.94075,-0.02434c0.35813,-0.35502 0.19007,0.34906 0,0l0,0zm0.57952,0.18515c-0.54327,-1.01662 0.6585,0.42675 0,0l0,0zm-1.15101,-1.09949c-1.79139,-1.59536 2.2505,0.83329 0.29235,0.2952l-0.29235,-0.2952l0,0zm5.13335,2.98177c-0.7758,-0.46429 -0.20638,-3.27205 0.05878,-1.35222c0.75354,-0.24393 -0.04169,0.99228 0.5197,0.98011c-0.08778,0.77968 -0.33974,1.06012 -0.57848,0.37211l0,0zm1.8986,1.12279c0.07587,-0.8465 0.15977,0.57875 0,0l0,0zm-0.32963,-0.32679c0.08494,-0.36097 0.00803,0.42596 0,0l0,0zm-6.35142,-4.30187c-1.15102,-1.58811 3.34506,1.60625 0.73747,0.40266c-0.27215,-0.07173 -0.60075,-0.0971 -0.73747,-0.40266l0,0zm3.65657,1.93821c-0.10901,-1.3372 0.24289,0.22139 0,0l0,0zm2.77565,1.78103c0.21441,-0.76156 0.01632,0.5039 0,0l0,0zm-6.2551,-4.32517c0.68387,-0.14656 2.83416,1.20073 0.8597,0.38454c-0.21932,-0.24289 -0.68776,-0.13258 -0.8597,-0.38454l0,0zm5.87367,2.92738c0.07303,-1.3675 0.40888,-0.8162 0.00311,0.19628l-0.00311,-0.19628l0,0zm-5.36485,-3.40359c0.27914,-0.40888 -0.74058,-1.8481 0.14656,-0.51608c0.3835,0.30452 1.10958,0.50987 0.46844,0.6383c1.00834,0.88922 -0.24574,0.24082 -0.615,-0.12222l0,0zm5.07457,2.97684c0.1924,-1.55782 0.17013,0.91226 0,0l0,0zm-5.65719,-4.41529c0.21337,-0.09115 0.11316,0.28406 0,0l0,0zm1.32399,0.78797c0.34077,-0.71521 0.6282,0.79704 0,0l0,0zm3.73349,2.07649c-0.00311,-0.27396 0.07069,0.39955 0,0l0,0zm-0.21648,-0.47828c-0.5179,-1.27867 0.48242,0.67662 0,0l0,0zm-0.31772,-0.83873c-0.08674,-0.52799 0.29546,0.66368 0,0l0,0zm0.5179,-0.84157c-0.35605,-0.62613 0.44928,-2.7614 0.53938,-1.43715c-0.37547,1.03164 -0.10824,1.60832 0.15252,0.2245c0.48371,-1.08835 -0.1041,2.14951 -0.6919,1.21264l0,0l0,0.00001zm0.53213,-3.17493c0.15485,-0.19032 0.03444,0.22943 0,0l0,0zm-0.88896,17.51227c-0.21052,-0.18411 0.02719,0.11626 0,0l0,0zm1.83075,0.92547c1.01843,0.26205 1.01352,-0.15795 0.09296,-0.28328c-0.49458,-0.46015 -2.05733,-0.94878 -0.6585,-0.05671c0.09219,0.23487 0.38454,0.22865 0.56554,0.33999l0,0zm-3.61514,-2.40147c0.56036,0.41898 2.11301,1.18545 0.79911,0.16002c0.44305,-0.51504 -0.84779,-0.789 -0.41975,-1.13392c-1.08939,-0.66678 -0.85996,-0.60697 -0.09607,-0.58573c-1.30897,-0.58573 0.18903,-0.5412 0.11834,-0.84157c-0.50469,-0.09917 -2.50763,-0.89026 -1.32917,0.06474c-1.19763,-0.61007 -0.28535,0.22761 -0.64737,0.13957c-1.22507,-0.33378 1.09042,0.93272 -0.19421,0.61811c0.70201,0.55622 1.89056,1.42627 0.29624,0.58859c-0.20923,0.30245 1.14117,0.76079 1.47289,0.99021l0,0l-0.00001,-0.00002zm1.91465,1.10052c2.32767,0.74965 -1.14195,-0.91744 0,0l0,0zm9.80163,5.93763c0.0303,-0.46222 -0.31772,0.39438 0,0l0,0zm1.00756,0.42389c0.53706,-0.51997 0.02227,0.82941 0.88999,-0.1274c0.00907,-0.68492 -0.02616,-1.08939 -0.9972,-0.25714c-0.26826,0.1489 -0.38738,0.77891 0.1072,0.38454l0,0zm-15.99199,-10.04322c-0.16495,-0.6484 -1.1562,-0.64555 0,0l0,0zm1.07514,0.70485c-0.39955,-0.66239 -1.42524,-0.59972 0,0l0,0zm6.12071,3.69101c0.59791,0.5311 2.74431,0.38945 0.72531,0.06578c-0.29856,-0.44202 -1.89756,-0.33585 -0.72531,-0.06578l0,0zm8.41264,5.19627c0.91951,-0.77192 -0.89103,0.34388 0,0l0,0zm1.91283,1.31389c0.00596,-0.24781 -0.39645,0.10824 0,0l0,0zm0.00311,-0.34699c1.01843,-1.07825 -0.98632,0.06371 0,0l0,0zm-20.1706,-12.77433c-0.86773,-1.23802 -0.53913,-1.7945 -1.37656,-2.80594c-0.15899,-0.77373 -1.43637,-2.52783 -0.66057,-0.66964c0.71003,1.08731 0.92056,2.77047 2.03713,3.47557l0,0l0,0.00001zm19.85081,12.43149c1.87451,-1.21084 -0.76855,-0.52695 0,0l0,0zm1.43042,0.56036c0.93868,-0.80532 -0.59377,-0.16806 0,0l0,0zm-18.95382,-12.14535c0.26826,-0.39955 -0.69372,-0.05153 0,0l0,0zm18.65525,11.76288c0.90838,-0.58548 -0.20923,-0.49562 -0.16469,0.0536l0.16469,-0.0536l0,0zm-12.32816,-7.77045c-0.03133,-0.39645 -0.48035,0.03341 0,0l0,0zm0.76156,0.43814c-0.24264,-0.48967 -0.37211,0.07691 0,0l0,0zm13.02421,7.72799c1.16422,-0.83976 -0.70485,-0.16106 -0.24367,0.15977l0.24367,-0.15977l0,0zm-0.44591,-0.21544c0.94878,-0.79419 -1.00057,0.35191 0,0l0,0zm2.27769,1.51613c0.63649,-0.42596 -0.77373,-0.1375 0,0l0,0zm-21.36098,-13.74744c0.85271,0.19111 3.4098,2.10083 1.9017,0.13258c-0.7727,-0.22865 -0.30944,-2.11714 -1.09742,-1.78336c0.52903,0.88404 0.43477,1.25925 -0.67585,0.70304c-1.39468,-0.6818 -0.78383,0.33688 -0.51064,0.61811c-0.37236,0.08494 0.49148,0.32265 0.3822,0.32963l0,0zm-3.88704,-3.0698c0.15252,-0.63234 -1.40711,-3.47557 -0.73644,-1.42523c0.2416,0.42985 0.21648,1.24398 0.73644,1.42523l0,0zm7.13501,4.39898c-0.43995,-0.36718 -0.02123,-0.05257 0,0l0,0zm1.08135,0.25196c0,-0.66964 -1.19555,-0.27215 0,0l0,0zm9.3767,5.91019c-0.17893,-0.4573 -0.70692,-0.01009 0,0l0,0zm0.45005,0.3286c-0.06681,-0.25584 -0.25998,0.04971 0,0l0,0zm3.71639,2.34165c0.35709,-0.26387 -0.44616,-0.03418 0,0l0,0zm-19.81844,-12.73575c1.02257,-0.39566 -1.0956,-0.28225 0,0l0,0zm14.82647,9.34019c-0.01191,-0.6616 -0.65228,0.16495 0,0l0,0zm-15.23017,-10.28197c0.65643,-0.22139 -0.608,-0.14552 0,0l0,0zm1.90558,0.9234c-0.01114,-0.21725 -0.2012,0.08312 0,0l0,0zm23.24973,14.25731c0.84442,-0.17091 2.76943,0.42985 3.07991,-0.22347c-1.02568,-0.02537 -3.5473,-0.72427 -3.66668,0.16573l0.22451,0.03548l0.36227,0.02227l0,0l-0.00001,-0.00001zm-22.6438,-14.10453c0.01528,-0.67067 -0.52281,-0.02512 0,0l0,0zm-5.01086,-3.47635c-0.22761,-1.27764 -0.86592,-0.19343 0,0l0,0zm1.19452,0.30038c0.01528,-0.41069 -1.09353,-0.36925 0,0l0,0zm0.68284,0.33585c-0.19732,-0.16002 -0.15381,0.2012 0,0l0,0zm4.29773,2.75622c0.2025,-0.18618 -0.47931,-0.1375 0,0l0,0zm-4.75192,-3.51287c-0.11627,-0.96509 -1.38484,-0.14475 0,0l0,0zm-2.45093,-1.59019c-0.03444,-0.44512 -0.23875,0.16779 0,0l0,0zm0.36511,-0.275c-0.05956,-0.52825 -0.31358,0.06655 0,0l0,0zm2.01305,1.20151c0.85167,-0.33378 -1.55083,-0.6919 -0.17402,-0.06267l0.17402,0.06267l0,0zm26.95059,16.64738c0.54508,-0.49951 -0.6919,-0.15459 0,0l0,0zm3.25598,1.68729c0.21855,-0.6453 -0.55026,0.08494 0,0l0,0zm-30.00045,-19.38962c0.09012,-0.62509 -0.6756,0.12429 0,0l0,0zm-2.8655,-1.91983c-0.15381,-0.88197 -0.13258,-2.43073 1.33927,-1.90765c-1.96436,0.3905 1.3605,2.44264 0.94075,0.82216c0.8263,0.04066 1.61634,-0.48837 1.18234,0.31358c1.62851,-0.17893 2.75648,-1.59097 4.32932,-1.39261c1.22482,-0.16288 2.56408,-0.28535 3.88419,-0.77891c1.08524,-0.07794 2.13009,-1.2463 1.53555,-1.93925c-1.47987,-0.12533 -3.02967,0.05982 -4.66517,0.38557c-1.81262,0.37625 -3.45926,1.09224 -5.28819,1.39986c-1.78336,0.23978 0.35813,0.65953 -0.15277,0.75354c-0.92962,0.32265 1.10958,0.54016 -0.1204,0.88094c-0.75949,-0.14449 -1.55057,-0.40551 -1.22585,-1.20669c-1.70749,0.22269 -3.20861,0.93065 -1.85923,2.66844l0.10021,0.00104l0,0zm4.11595,-2.09591c0.39955,-1.47469 2.14433,1.21394 0.65539,0.19628c-0.17712,-0.13361 -0.47051,-0.24185 -0.65539,-0.19628l0,0zm0.07769,-0.71521c0.57771,-0.42985 0.3066,0.24185 0,0l0,0zm0.73334,0.01216c0.05282,-0.67869 1.6803,0.35916 0.26826,0.24393l-0.26826,-0.24393l0,0zm1.00341,-0.40343c0.36718,-0.42907 0.10642,0.38013 0,0l0,0zm0.25714,-0.17194c0.61086,-0.73334 3.45616,-0.46844 1.37345,-0.07199c-0.55829,-0.42079 -0.98607,0.24781 -1.37345,0.07199l0,0zm3.71406,-0.57252c-0.09192,-2.00398 1.84603,0.71106 0,0l0,0zm1.05417,-0.00621c0.38531,-1.00937 1.49594,-0.40551 0.17893,-0.20327c0.02823,0.10824 -0.03936,0.52204 -0.17893,0.20327l0,0zm-8.50586,5.35501c1.15102,-0.70511 -1.22196,-0.61189 0,0l0,0zm0.85167,0.23564c0.4037,-0.42882 -0.87808,-0.17402 0,0l0,0zm-2.50841,-1.77922c0.65746,-0.50572 -0.77891,-0.19214 0,0l0,0zm33.9947,21.26699c0.01916,-0.58677 -0.50287,0.26387 0,0l0,0zm-3.45434,-2.35797c0.09814,-0.67455 -0.44409,0.05878 0,0l0,0zm4.40415,2.58558c0.91952,0.00311 2.78652,-0.2864 0.7859,-0.28535c-0.31462,0.04868 -1.82971,0.03858 -0.7859,0.28535l0,0zm-31.68749,-20.12918c0.74447,-0.0505 1.16422,-0.82034 -0.14475,-0.77684c-2.02807,-0.20923 1.78932,0.69501 -0.25998,0.43607c-0.275,0.18204 0.38842,0.39152 0.40473,0.34077l0,0zm0.65539,0.33197c-0.07794,-0.47749 -0.23073,0.25376 0,0l0,0zm0.77788,-2.07364c0.32265,-0.40059 -0.4472,-0.1072 0,0l0,0zm-2.4763,-4.13822c1.32917,-0.45108 3.14594,-0.95888 3.77311,0.22269c-0.6383,-0.76777 -0.25791,-1.52442 0.34492,-0.40059c0.85271,1.13599 1.27946,-0.51685 0.72505,-0.89828c0.63234,0.78486 1.3504,1.1562 0.42286,0.04971c1.00859,-1.21291 -2.01797,0.15874 -2.70573,0.14449c-0.33067,0.14863 -3.41679,0.78693 -2.5602,0.88197l0,0zm0.77891,-1.49075c0.75768,-0.5715 2.62079,0.34077 1.42523,-0.56865c-0.11731,-0.10306 -2.61768,0.68983 -1.42523,0.56865l0,0zm2.76243,0.11419c0.88612,0.02227 -0.3822,-1.19168 0.67378,-0.64141c-0.17298,-0.56631 -1.23,-0.67248 -1.74685,-0.89906c-0.29235,0.5179 0.59454,1.54747 1.07307,1.54047l0,0zm-2.27794,-2.50763c0.3066,-0.41561 -0.53809,0.21156 0,0l0,0zm1.12901,0.27008c1.42912,-0.18903 -0.36434,-0.615 -0.28847,-0.01502l0.28847,0.01502l0,0zm-2.10808,-1.64871c-1.00652,-1.31389 1.89264,0.22062 0.8698,-1.15516c-0.86074,-0.68465 -1.68703,0.77192 -0.8698,1.15516l0,0zm12.91182,6.95426c0.46144,-0.8175 -1.90455,-1.1026 -0.31047,-0.28951c0.14656,0.04868 0.11342,0.34595 0.31047,0.28951l0,0z" fill="black" id="svg_2"/>
 </g>
</svg>