<svg width="40" height="40" xmlns="http://www.w3.org/2000/svg" xmlns:svg="http://www.w3.org/2000/svg">
 <g class="layer">
  <title>Layer 1</title>
  <g id="svg_1">
   <path d="m38.87109,18.25293l-17.12446,-17.12361c-0.986,-0.98643 -2.58538,-0.98643 -3.57224,0l-3.55559,3.55644l4.51044,4.51044c1.04832,-0.35428 2.25031,-0.11653 3.08564,0.71923c0.84045,0.84088 1.07607,2.05311 0.71283,3.10527l4.34781,4.34738c1.05216,-0.36282 2.26525,-0.12805 3.10527,0.71325c1.17381,1.17381 1.17381,3.07582 0,4.25049c-1.17467,1.17424 -3.07667,1.17424 -4.25177,0c-0.88271,-0.88356 -1.10125,-2.18116 -0.65349,-3.26875l-4.055,-4.05457l0,10.66976c0.28598,0.14171 0.55617,0.33038 0.79435,0.56855c1.17381,1.17381 1.17381,3.07582 0,4.25092c-1.17381,1.17339 -3.0771,1.17339 -4.25006,0c-1.17381,-1.17552 -1.17381,-3.07753 0,-4.25092c0.29025,-0.28983 0.62618,-0.50922 0.98472,-0.65606l0,-10.76921c-0.35855,-0.14683 -0.69362,-0.3641 -0.98472,-0.65606c-0.88911,-0.88868 -1.10296,-2.19397 -0.64709,-3.28583l-4.44641,-4.44726l-11.74241,11.74113c-0.98643,0.98728 -0.98643,2.58666 0,3.57309l17.12531,17.12403c0.986,0.98643 2.58495,0.98643 3.57224,0l17.04464,-17.04464c0.98643,-0.98643 0.98643,-2.58666 0,-3.57309z" fill="#F05133" id="svg_2"/>
  </g>
 </g>
</svg>