<svg width="40" height="40" xmlns="http://www.w3.org/2000/svg" xmlns:svg="http://www.w3.org/2000/svg">
 <g class="layer">
  <title>Layer 1</title>
  <g id="svg_1">
   <g id="svg_2">
    <g id="svg_3">
     <rect fill="#E535AB" height="320.3" id="svg_4" transform="matrix(-0.0861574 -0.0497446 0.0497446 -0.0861574 23.2358 255)" width="16.6" x="1281.36155" y="1869.19992"/>
    </g>
   </g>
   <g id="svg_5">
    <g id="svg_6">
     <rect fill="#E535AB" height="1.65152" id="svg_7" width="31.86638" x="4.06183" y="27.18312"/>
    </g>
   </g>
   <g id="svg_8">
    <g id="svg_9">
     <rect fill="#E535AB" height="16.6" id="svg_10" transform="matrix(-0.0861574 -0.0497446 0.0497446 -0.0861574 15.2517 284.849)" width="185" x="1197.26155" y="2181.79992"/>
    </g>
   </g>
   <g id="svg_11">
    <g id="svg_12">
     <rect fill="#E535AB" height="16.6" id="svg_13" transform="matrix(-0.0861574 -0.0497446 0.0497446 -0.0861574 53.0847 247.016)" width="185" x="1336.46155" y="1940.69992"/>
    </g>
   </g>
   <g id="svg_14">
    <g id="svg_15">
     <rect fill="#E535AB" height="185" id="svg_16" transform="matrix(-0.0497446 -0.0861574 0.0861574 -0.0497446 19.6015 241.948)" width="16.6" x="2060.90753" y="1026.49431"/>
    </g>
   </g>
   <g id="svg_17">
    <g id="svg_18">
     <rect fill="#E535AB" height="16.6" id="svg_19" transform="matrix(-0.0497446 -0.0861574 0.0861574 -0.0497446 33.4596 265.95)" width="320.3" x="2048.40753" y="1191.09431"/>
    </g>
   </g>
   <g id="svg_20">
    <g id="svg_21">
     <rect fill="#E535AB" height="18.4055" id="svg_22" width="1.65152" x="5.32535" y="10.79725"/>
    </g>
   </g>
   <g id="svg_23">
    <g id="svg_24">
     <rect fill="#E535AB" height="18.4055" id="svg_25" width="1.65152" x="33.02313" y="10.79725"/>
    </g>
   </g>
   <g id="svg_26">
    <g id="svg_27">
     <rect fill="#E535AB" height="160.9" id="svg_28" transform="matrix(-0.0497446 -0.0861574 0.0861574 -0.0497446 19.602 289.918)" width="14.5" x="2201.20753" y="1279.59431"/>
    </g>
   </g>
   <path d="m36.86342,29.73999c-0.9551,1.66147 -3.08416,2.22856 -4.74563,1.27346c-1.66147,-0.9551 -2.22856,-3.08416 -1.27346,-4.74563c0.9551,-1.66147 3.08416,-2.22856 4.74563,-1.27346c1.67142,0.96504 2.2385,3.08416 1.27346,4.74563" fill="#E535AB" id="svg_29"/>
   <path d="m9.14573,13.73218c-0.9551,1.66147 -3.08416,2.22856 -4.74563,1.27346c-1.66147,-0.9551 -2.22856,-3.08416 -1.27346,-4.74563c0.9551,-1.66147 3.08416,-2.22856 4.74563,-1.27346c1.66147,0.96504 2.22856,3.08416 1.27346,4.74563" fill="#E535AB" id="svg_30"/>
   <path d="m3.13659,29.73999c-0.9551,-1.66147 -0.38801,-3.78059 1.27346,-4.74563c1.66147,-0.9551 3.78059,-0.38801 4.74563,1.27346c0.9551,1.66147 0.38801,3.78059 -1.27346,4.74563c-1.67142,0.9551 -3.79053,0.38801 -4.74563,-1.27346" fill="#E535AB" id="svg_31"/>
   <path d="m30.85427,13.73218c-0.9551,-1.66147 -0.38801,-3.78059 1.27346,-4.74563c1.66147,-0.9551 3.78059,-0.38801 4.74563,1.27346c0.9551,1.66147 0.38801,3.78059 -1.27346,4.74563c-1.66147,0.9551 -3.79053,0.38801 -4.74563,-1.27346" fill="#E535AB" id="svg_32"/>
   <path d="m20,39.47998c-1.92014,0 -3.47217,-1.55203 -3.47217,-3.47217c0,-1.92014 1.55203,-3.47217 3.47217,-3.47217c1.92014,0 3.47217,1.55203 3.47217,3.47217c0,1.91019 -1.55203,3.47217 -3.47217,3.47217" fill="#E535AB" id="svg_33"/>
   <path d="m20,7.46436c-1.92014,0 -3.47217,-1.55203 -3.47217,-3.47217c0,-1.92014 1.55203,-3.47217 3.47217,-3.47217c1.92014,0 3.47217,1.55203 3.47217,3.47217c0,1.92014 -1.55203,3.47217 -3.47217,3.47217" fill="#E535AB" id="svg_34"/>
  </g>
 </g>
</svg>