<svg width="40" height="40" xmlns="http://www.w3.org/2000/svg" xmlns:svg="http://www.w3.org/2000/svg">
 <title>HTML5 Logo Badge</title>
 <g class="layer">
  <title>Layer 1</title>
  <g id="svg_5">
   <path d="m5.80051,35.70025l-3.15544,-35.40253l34.70987,0l-3.15544,35.40253l-14.23797,4.00203" fill="#E34F26" id="svg_1"/>
   <path d="m20.03848,36.6238l11.46734,-3.15544l2.69367,-30.32304l-14.16101,0" fill="#EF652A" id="svg_2"/>
   <path d="m20.03848,16.30582l-5.77215,0l-0.38481,-4.4638l6.15696,0l0,-4.30987l-0.07696,0l-10.85165,0l0.07696,1.15443l1.07747,12.00608l9.77418,0l0,-4.38684zm0,11.31342l-0.07696,0l-4.84861,-1.30835l-0.30785,-3.46329l-2.30886,0l-2.00101,0l0.53873,6.84962l8.92759,2.46278l0.07696,0l0,-4.54076z" fill="#EBEBEB" id="svg_3"/>
   <path d="m19.96152,16.30582l0,4.38684l5.38734,0l-0.53873,5.61823l-4.84861,1.30835l0,4.54076l8.92759,-2.46278l0.07696,-0.76962l1.00051,-11.46734l0.15392,-1.15443l-1.23139,0l-8.92759,0zm0,-8.77367l0,2.69367l0,1.6162l0,0l10.5438,0l0,0l0,0l0.07696,-0.92354l0.23089,-2.2319l0.07696,-1.15443l-10.92861,0z" fill="#FFF" id="svg_4"/>
  </g>
 </g>
</svg>