<svg width="40" height="40" xmlns="http://www.w3.org/2000/svg" xmlns:svg="http://www.w3.org/2000/svg">
 <g class="layer">
  <title>Layer 1</title>
  <g id="svg_3">
   <path d="m14.91833,30.6495s-1.49887,0.91151 1.0419,1.17229c3.05867,0.38995 4.68793,0.32536 8.07319,-0.32536a12.21031,12.21031 0 0 0 2.14838,1.0419c-7.61621,3.25608 -17.25529,-0.19498 -11.26468,-1.88882l0.00122,0zm-0.97488,-4.23218s-1.62804,1.23687 0.91151,1.49887c3.32067,0.32536 5.9248,0.38995 10.41898,-0.52034a3.97262,3.97262 0 0 0 1.56224,0.97609c-9.18089,2.73453 -19.46826,0.26078 -12.89272,-1.95341l0,-0.00122zm17.97061,7.42124s1.10648,0.91151 -1.23687,1.62804c-4.36257,1.3039 -18.29597,1.69385 -22.20278,0c-1.36726,-0.58493 1.23687,-1.43185 2.07161,-1.56224c0.84692,-0.19498 1.3039,-0.19498 1.3039,-0.19498c-1.49887,-1.0419 -9.96201,2.14838 -4.29676,3.05867c15.56145,2.53955 28.38837,-1.10648 24.35116,-2.9295l0.00975,0zm-16.29138,-11.84961s-7.09709,1.69385 -2.53955,2.27877c1.95341,0.26078 5.79441,0.19498 9.37586,-0.06459c2.9295,-0.26078 5.86144,-0.7799 5.86144,-0.7799s-1.0419,0.45575 -1.75843,0.91151c-7.22626,1.88882 -21.0963,1.0419 -17.12368,-0.91151c3.38525,-1.62804 6.18558,-1.43185 6.18558,-1.43185l-0.00122,-0.00244zm12.69775,7.09709c7.29207,-3.77764 3.90681,-7.42124 1.56224,-6.9667c-0.58493,0.13039 -0.84692,0.26078 -0.84692,0.26078s0.19498,-0.38995 0.65073,-0.52034c4.62335,-1.62804 8.26938,4.88291 -1.49887,7.42124c0,0 0.06459,-0.06459 0.13039,-0.19498l0.00244,0zm-11.97878,10.28737c7.03129,0.45575 17.77563,-0.26078 18.03519,-3.58267c0,0 -0.52034,1.3039 -5.79441,2.27877c-5.99061,1.10648 -13.41306,0.97488 -17.77563,0.26078c0,0 0.91151,0.7799 5.53485,1.0419l0,0.00122z" fill="#4e7896" id="svg_1"/>
   <path d="m23.90424,0.5027s4.0372,4.10179 -3.84101,10.28737c-6.31597,5.0133 -1.43185,7.87821 0,11.13429c-3.71184,-3.32067 -6.38056,-6.25139 -4.55754,-8.98469c2.66872,-4.03842 10.02659,-5.97964 8.39855,-12.43697zm-2.07161,18.68714c1.88882,2.14838 -0.52034,4.10179 -0.52034,4.10179s4.81832,-2.47375 2.60414,-5.53485c-2.01799,-2.9295 -3.58267,-4.36257 4.88291,-9.24547c0,0 -13.34726,3.32067 -6.9667,10.67854z" fill="#f58219" id="svg_2"/>
  </g>
 </g>
</svg>