<svg width="40" height="40" xmlns="http://www.w3.org/2000/svg" xmlns:svg="http://www.w3.org/2000/svg">
 <g class="layer">
  <title>Layer 1</title>
  <g id="svg_3">
   <rect fill="#f7df1e" height="39.18182" id="svg_1" width="39.18182" x="0.40909" y="0.40909"/>
   <path d="m26.66713,30.95785c0.78923,1.28865 1.81605,2.23585 3.63209,2.23585c1.5256,0 2.50017,-0.76249 2.50017,-1.81605c0,-1.26253 -1.00131,-1.7097 -2.68053,-2.4442l-0.92046,-0.39493c-2.6569,-1.13192 -4.42195,-2.54993 -4.42195,-5.54765c0,-2.76139 2.104,-4.86352 5.39216,-4.86352c2.34096,0 4.02391,0.81473 5.23668,2.94797l-2.86711,1.84092c-0.63126,-1.13192 -1.31228,-1.57785 -2.36957,-1.57785c-1.07843,0 -1.76194,0.68413 -1.76194,1.57785c0,1.10455 0.68413,1.55172 2.26384,2.23585l0.92046,0.39431c3.12833,1.34151 4.89462,2.70914 4.89462,5.78398c0,3.31491 -2.60404,5.13095 -6.10117,5.13095c-3.41939,0 -5.6285,-1.62947 -6.70942,-3.76519l2.99212,-1.7383zm-13.0065,0.31905c0.5784,1.02619 1.10455,1.89379 2.36957,1.89379c1.20966,0 1.97277,-0.47329 1.97277,-2.31359l0,-12.51952l3.68185,0l0,12.56928c0,3.81245 -2.23523,5.54765 -5.49789,5.54765c-2.94797,0 -4.65517,-1.5256 -5.52339,-3.36311l2.9971,-1.81449z" fill="black" id="svg_2"/>
  </g>
 </g>
</svg>