<svg width="140" height="40" xmlns="http://www.w3.org/2000/svg" xmlns:svg="http://www.w3.org/2000/svg">
 <title>MongoDB</title>
 <g class="layer">
  <title>Layer 1</title>
  <g id="svg_8">
   <g id="Mongo">
    <path d="m12.3755,28.1379c-0.22933,2.78722 -0.40573,4.41016 -1.00552,5.99781c0,0 0.40573,2.66373 0.67035,5.4686l0.98788,0c0.22933,-1.97575 0.58214,-3.9515 1.05843,-5.89197c-1.25248,-0.58214 -1.65822,-3.1224 -1.71114,-5.57443l-0.00001,-0.00001l0.00001,0z" fill="#B8C4C2" id="svg_2"/>
   </g>
   <g id="svg_7">
    <path d="m20.7124,15.70048c-2.05828,-8.93882 -6.35126,-11.32055 -7.43921,-12.99658c-0.45577,-0.7498 -0.85272,-1.51431 -1.19086,-2.30821c-0.0588,0.79391 -0.16172,1.29378 -0.85272,1.89656c-1.38199,1.20556 -7.21869,5.89551 -7.71856,16.05459c-0.45577,9.46809 7.07167,15.30479 8.0714,15.90758c0.7645,0.36755 1.69073,0 2.1465,-0.33815c3.6314,-2.45523 8.58597,-8.98293 6.98346,-18.21579" fill="#10AA50" id="svg_1"/>
    <path d="m13.73375,33.77662l0,0c-1.00971,-0.46827 -1.30238,-2.64866 -1.34628,-4.68272c0.24877,-3.3657 0.32193,-6.73141 0.2195,-10.11175c-0.05854,-1.75602 0.02927,-16.36025 -0.43901,-18.49675c0.32193,0.71704 0.68777,1.41945 1.08288,2.10723c1.08288,1.68285 5.31196,4.05348 7.33139,12.99455c1.58042,9.20447 -3.2779,15.71638 -6.84848,18.18944l0,-0.00001l0,0.00001z" fill="#12924F" id="svg_3"/>
    <g id="React">
     <g id="svg_6">
      <path d="m94.99841,20.00405c0,-2.63068 -3.29442,-5.12375 -8.34532,-6.66978c1.16559,-5.14804 0.64755,-9.2438 -1.63507,-10.55509c-0.52614,-0.30759 -1.14131,-0.45329 -1.81314,-0.45329l0,1.80505c0.37234,0 0.67183,0.07285 0.92276,0.21045c1.10084,0.63136 1.57841,3.0354 1.20606,6.12746c-0.08904,0.76087 -0.23474,1.56222 -0.41281,2.37975c-1.5865,-0.38853 -3.3187,-0.68802 -5.13994,-0.88229c-1.09274,-1.49746 -2.22596,-2.85732 -3.36727,-4.0472c2.63877,-2.4526 5.11566,-3.79627 6.79929,-3.79627l0,-1.80505c0,0 0,0 0,0c-2.22596,0 -5.13994,1.5865 -8.0863,4.3386c-2.94636,-2.73591 -5.86034,-4.30622 -8.0863,-4.30622l0,1.80505c1.67554,0 4.16052,1.33558 6.79929,3.77199c-1.13322,1.18988 -2.26643,2.54164 -3.34299,4.0391c-1.82933,0.19427 -3.56153,0.49376 -5.14804,0.89038c-0.18617,-0.80944 -0.32378,-1.5946 -0.42091,-2.34737c-0.38044,-3.09206 0.08904,-5.49609 1.18178,-6.13555c0.24283,-0.1457 0.55851,-0.21045 0.93086,-0.21045l0,-1.80505c0,0 0,0 0,0c-0.67993,0 -1.2951,0.1457 -1.82933,0.45329c-2.27452,1.31129 -2.78447,5.39896 -1.61078,10.53081c-5.03471,1.55412 -8.31294,4.0391 -8.31294,6.66169c0,2.63068 3.29442,5.12375 8.34532,6.66978c-1.16559,5.14804 -0.64755,9.2438 1.63507,10.55509c0.52614,0.30759 1.14131,0.45329 1.82124,0.45329c2.22596,0 5.13994,-1.5865 8.0863,-4.3386c2.94636,2.73591 5.86034,4.30622 8.0863,4.30622c0.67993,0 1.2951,-0.1457 1.82933,-0.45329c2.27452,-1.31129 2.78447,-5.39896 1.61078,-10.53081c5.01852,-1.54603 8.29675,-4.0391 8.29675,-6.66169l0.00001,0zm-10.5389,-5.39896c-0.29949,1.04418 -0.67183,2.12073 -1.09274,3.19729c-0.33187,-0.64755 -0.67993,-1.2951 -1.06037,-1.94265c-0.37234,-0.64755 -0.76897,-1.27891 -1.16559,-1.89409c1.1494,0.16998 2.25834,0.38044 3.3187,0.63946l0,-0.00001zm-3.70723,8.62053c-0.63136,1.09274 -1.27891,2.12883 -1.95075,3.09206c-1.20606,0.10523 -2.42832,0.16189 -3.65867,0.16189c-1.22225,0 -2.44451,-0.05666 -3.64248,-0.15379c-0.67183,-0.96323 -1.32748,-1.99122 -1.95884,-3.07587c-0.61517,-1.06037 -1.17369,-2.13692 -1.68363,-3.22157c0.50185,-1.08465 1.06846,-2.1693 1.67554,-3.22966c0.63136,-1.09274 1.27891,-2.12883 1.95075,-3.09206c1.20606,-0.10523 2.42832,-0.16189 3.65867,-0.16189c1.22225,0 2.44451,0.05666 3.64248,0.15379c0.67183,0.96323 1.32748,1.99122 1.95884,3.07587c0.61517,1.06037 1.17369,2.13692 1.68363,3.22157c-0.50995,1.08465 -1.06846,2.1693 -1.67554,3.22966zm2.61449,-1.05227c0.4371,1.08465 0.80944,2.1693 1.11703,3.22157c-1.06037,0.25902 -2.17739,0.47757 -3.33489,0.64755c0.39663,-0.62327 0.79325,-1.26273 1.16559,-1.91837c0.37234,-0.64755 0.7204,-1.3032 1.05227,-1.95075zm-8.20772,8.63672c-0.75278,-0.77706 -1.50556,-1.64316 -2.25024,-2.59021c0.7285,0.03238 1.47318,0.05666 2.22596,0.05666c0.76087,0 1.51365,-0.01619 2.25024,-0.05666c-0.7285,0.94704 -1.48127,1.81314 -2.22596,2.59021zm-6.02223,-4.7676c-1.1494,-0.16998 -2.25834,-0.38044 -3.3187,-0.63946c0.29949,-1.04418 0.67183,-2.12073 1.09274,-3.19729c0.33187,0.64755 0.67993,1.2951 1.06037,1.94265c0.38044,0.64755 0.76897,1.27891 1.16559,1.89409l0,0.00001zm5.98176,-16.84444c0.75278,0.77706 1.50556,1.64316 2.25024,2.59021c-0.7285,-0.03238 -1.47318,-0.05666 -2.22596,-0.05666c-0.76087,0 -1.51365,0.01619 -2.25024,0.05666c0.7285,-0.94704 1.48127,-1.81314 2.22596,-2.59021zm-5.98985,4.7676c-0.39663,0.62327 -0.79325,1.26273 -1.16559,1.91837c-0.37234,0.64755 -0.7204,1.2951 -1.05227,1.94265c-0.4371,-1.08465 -0.80944,-2.1693 -1.11703,-3.22157c1.06037,-0.25093 2.17739,-0.46947 3.33489,-0.63946l0,0.00001zm-7.32543,10.13418c-2.86542,-1.22225 -4.71903,-2.82494 -4.71903,-4.09576c0,-1.27082 1.85362,-2.8816 4.71903,-4.09576c0.69612,-0.29949 1.45699,-0.56661 2.24215,-0.81753c0.46138,1.5865 1.06846,3.23776 1.82124,4.92949c-0.74468,1.68363 -1.34367,3.3268 -1.79696,4.9052c-0.80135,-0.25093 -1.56222,-0.52614 -2.26643,-0.82563l0,-0.00001zm4.35478,11.56689c-1.10084,-0.63136 -1.57841,-3.0354 -1.20606,-6.12746c0.08904,-0.76087 0.23474,-1.56222 0.41281,-2.37975c1.5865,0.38853 3.3187,0.68802 5.13994,0.88229c1.09274,1.49746 2.22596,2.85732 3.36727,4.0472c-2.63877,2.4526 -5.11566,3.79627 -6.79929,3.79627c-0.36425,-0.00809 -0.67183,-0.08094 -0.91467,-0.21855zm19.1999,-6.16793c0.38044,3.09206 -0.08904,5.49609 -1.18178,6.13555c-0.24283,0.1457 -0.55851,0.21045 -0.93086,0.21045c-1.67554,0 -4.16052,-1.33558 -6.79929,-3.77199c1.13322,-1.18988 2.26643,-2.54164 3.34299,-4.0391c1.82933,-0.19427 3.56153,-0.49376 5.14804,-0.89038c0.18617,0.81753 0.33187,1.60269 0.42091,2.35547l-0.00001,0zm3.11634,-5.39896c-0.69612,0.29949 -1.45699,0.56661 -2.24215,0.81753c-0.46138,-1.5865 -1.06846,-3.23776 -1.82124,-4.92949c0.74468,-1.68363 1.34367,-3.3268 1.79696,-4.9052c0.80135,0.25093 1.56222,0.52614 2.27452,0.82563c2.86542,1.22225 4.71903,2.82494 4.71903,4.09576c-0.00809,1.27082 -1.86171,2.8816 -4.72713,4.09576l0.00001,0.00001z" fill="#61DAFB" id="svg_2"/>
      <polygon fill="#61DAFB" id="svg_3" points="67.03227376937866,2.3501691818237305 67.03227376937866,2.3501691818237305 67.03227376937866,2.3501691818237305 "/>
      <circle cx="75.13477" cy="20.00405" fill="#61DAFB" id="svg_4" r="3.69914"/>
      <polygon fill="#61DAFB" id="svg_5" points="83.196786403656,2.3258867263793945 83.196786403656,2.3258867263793945 83.196786403656,2.3258867263793945 "/>
     </g>
    </g>
    <g id="E">
     <path d="m51.80223,5.00001l-20,0l0,30l20,0l0,-1l-19,0l0,-14l14,0l0,-1l-14,0l0,-13l19,0l0,-1z" fill="#222222" id="svg_5"/>
    </g>
    <g id="node">
     <path d="m136.50881,12.49113c0,-0.71348 -0.37614,-1.36879 -0.99187,-1.7236l-16.42379,-9.44964c-0.27726,-0.16286 -0.58786,-0.24817 -0.9027,-0.25979l-0.16984,0c-0.31484,0.01162 -0.62544,0.09693 -0.90734,0.25979l-16.42306,9.44964c-0.61187,0.35672 -0.99343,1.01202 -0.99343,1.72551l0.03607,25.45234c0,0.35286 0.18224,0.68244 0.49244,0.85692c0.30245,0.18614 0.68244,0.18614 0.98489,0l9.7637,-5.59145c0.61655,-0.36682 0.99265,-1.01515 0.99265,-1.72165l0,-11.89053c0,-0.70958 0.37614,-1.36489 0.9907,-1.71775l4.15673,-2.39399c0.30864,-0.17838 0.64755,-0.26677 0.99265,-0.26677c0.33968,0 0.68634,0.08765 0.98645,0.26638l4.15482,2.39325c0.61499,0.35286 0.99265,1.00817 0.99265,1.71775l0,11.8898c0,0.70572 0.38117,1.35713 0.9946,1.72165l9.7575,5.58755c0.30635,0.18224 0.68747,0.18224 0.99265,0c0.30089,-0.17448 0.49166,-0.50406 0.49166,-0.85692l0.03177,-25.44844l0.00009,0l0.00001,-0.00005z" fill="#333" fill-rule="evenodd" id="svg_6"/>
    </g>
   </g>
  </g>
 </g>
</svg>