<svg width="140" height="140" xmlns="http://www.w3.org/2000/svg" xmlns:svg="http://www.w3.org/2000/svg">
 <title>MongoDB</title>
 <g class="layer">
  <title>Layer 1</title>
  <g id="svg_7">
   <g id="node">
    <path d="m136.50881,62.49113c0,-0.71348 -0.37614,-1.36879 -0.99187,-1.7236l-16.42379,-9.44964c-0.27726,-0.16286 -0.58786,-0.24817 -0.9027,-0.25979l-0.16984,0c-0.31484,0.01162 -0.62544,0.09693 -0.90734,0.25979l-16.42306,9.44964c-0.61187,0.35672 -0.99343,1.01202 -0.99343,1.72551l0.03607,25.45234c0,0.35286 0.18224,0.68244 0.49244,0.85692c0.30245,0.18614 0.68244,0.18614 0.98489,0l9.7637,-5.59145c0.61655,-0.36682 0.99265,-1.01515 0.99265,-1.72165l0,-11.89053c0,-0.70958 0.37614,-1.36489 0.9907,-1.71775l4.15673,-2.39399c0.30864,-0.17838 0.64755,-0.26677 0.99265,-0.26677c0.33968,0 0.68634,0.08765 0.98645,0.26638l4.15482,2.39325c0.61499,0.35286 0.99265,1.00817 0.99265,1.71775l0,11.8898c0,0.70572 0.38117,1.35713 0.9946,1.72165l9.7575,5.58755c0.30635,0.18224 0.68747,0.18224 0.99265,0c0.30089,-0.17448 0.49166,-0.50406 0.49166,-0.85692l0.03177,-25.44844l0.00009,0l0.00001,-0.00005z" fill="#333" fill-rule="evenodd" id="svg_6"/>
   </g>
   <g id="E">
    <path d="m51.80223,55.00001l-20,0l0,30l20,0l0,-1l-19,0l0,-14l14,0l0,-1l-14,0l0,-13l19,0l0,-1z" fill="#222222" id="svg_5"/>
   </g>
   <g id="Vue">
    <g id="svg_1" transform="matrix(0.201777 0 0 -0.201777 -14.521 179.582)">
     <g id="svg_2" transform="translate(178.06 235.01)">
      <path d="m288.65324,393.52141l-22.669,-39.264l-22.669,39.264l-75.491,0l98.16,-170.02l98.16,170.02l-75.491,0z" fill="#41b883" id="svg_3"/>
     </g>
     <g id="svg_4" transform="translate(178.06 235.01)">
      <path d="m288.65324,393.52141l-22.669,-39.264l-22.669,39.264l-36.227,0l58.896,-102.01l58.896,102.01l-36.227,0z" fill="#34495e" id="svg_5"/>
     </g>
    </g>
   </g>
   <g id="Mongo">
    <path d="m20.7124,65.70048c-2.05828,-8.93882 -6.35126,-11.32055 -7.43921,-12.99658c-0.45577,-0.7498 -0.85272,-1.51431 -1.19086,-2.30821c-0.0588,0.79391 -0.16172,1.29378 -0.85272,1.89656c-1.38199,1.20556 -7.21869,5.89551 -7.71856,16.05459c-0.45577,9.46809 7.07167,15.30479 8.0714,15.90758c0.7645,0.36755 1.69073,0 2.1465,-0.33815c3.6314,-2.45523 8.58597,-8.98293 6.98346,-18.21579" fill="#10AA50" id="svg_1"/>
    <path d="m12.3755,78.1379c-0.22933,2.78722 -0.40573,4.41016 -1.00552,5.99781c0,0 0.40573,2.66373 0.67035,5.4686l0.98788,0c0.22933,-1.97575 0.58214,-3.9515 1.05843,-5.89197c-1.25248,-0.58214 -1.65822,-3.1224 -1.71114,-5.57443l-0.00001,-0.00001l0.00001,0z" fill="#B8C4C2" id="svg_2"/>
    <path d="m13.73375,83.77662l0,0c-1.00971,-0.46827 -1.30238,-2.64866 -1.34628,-4.68272c0.24877,-3.3657 0.32193,-6.73141 0.2195,-10.11175c-0.05854,-1.75602 0.02927,-16.36025 -0.43901,-18.49675c0.32193,0.71704 0.68777,1.41945 1.08288,2.10723c1.08288,1.68285 5.31196,4.05348 7.33139,12.99455c1.58042,9.20447 -3.2779,15.71638 -6.84848,18.18944l0,-0.00001l0,0.00001z" fill="#12924F" id="svg_3"/>
   </g>
  </g>
 </g>
</svg>