<svg width="64" height="64" xmlns="http://www.w3.org/2000/svg" xmlns:svg="http://www.w3.org/2000/svg">
 <title>MongoDB</title>
 <g class="layer">
  <title>Layer 1</title>
  <path d="m45.09329,23.9332c-3.18719,-13.84152 -9.83476,-17.52956 -11.51942,-20.12484c-0.70574,-1.16105 -1.32041,-2.34486 -1.84402,-3.57421c-0.09106,1.22935 -0.25042,2.00338 -1.32041,2.93677c-2.13997,1.86678 -11.17794,9.12903 -11.95197,24.8601c-0.70574,14.66108 10.95028,23.69905 12.49835,24.63244c1.18381,0.56914 2.61805,0 3.32379,-0.52361c5.62312,-3.80186 13.29514,-13.90982 10.81369,-28.20665" fill="#10AA50" id="svg_1"/>
  <path d="m32.18384,43.19221c-0.35511,4.31593 -0.62827,6.82901 -1.55701,9.28745c0,0 0.62827,4.12472 1.03801,8.46797l1.5297,0c0.35511,-3.05939 0.90143,-6.11879 1.63896,-9.12355c-1.93944,-0.90143 -2.56771,-4.83494 -2.64965,-8.63186z" fill="#B8C4C2" id="svg_2"/>
  <path d="m34.28704,51.9236l0,0c-1.56351,-0.72511 -2.0167,-4.10138 -2.08468,-7.25106c0.38521,-5.2117 0.49851,-10.4234 0.33989,-15.65776c-0.09064,-2.71915 0.04532,-25.3334 -0.67979,-28.6417c0.49851,1.11032 1.065,2.19798 1.67681,3.26298c1.67681,2.60585 8.22542,6.2767 11.35245,20.1217c2.44723,14.25287 -5.07574,24.33638 -10.60468,28.16585z" fill="#12924F" id="svg_3"/>
 </g>
</svg>