<svg width="64" height="64" xmlns="http://www.w3.org/2000/svg" xmlns:svg="http://www.w3.org/2000/svg">
 <title>MongoDB</title>
 <g class="layer">
  <title>Layer 1</title>
  <g id="svg_4">
   <path d="m45.57561,25.09706c-3.3046,-14.3514 -10.19704,-18.1753 -11.94376,-20.86618c-0.73174,-1.20382 -1.36905,-2.43124 -1.91195,-3.70587c-0.09441,1.27464 -0.25964,2.07718 -1.36905,3.04495c-2.2188,1.93555 -11.5897,9.46532 -12.39225,25.77587c-0.73174,15.20115 11.35366,24.57205 12.95875,25.53983c1.22742,0.59011 2.71449,0 3.44623,-0.5429c5.83026,-3.94191 13.78489,-14.42222 11.21204,-29.2457" fill="#10AA50" id="svg_1"/>
   <path d="m32.19061,45.06552c-0.36819,4.47492 -0.65141,7.08057 -1.61437,9.62957c0,0 0.65141,4.27666 1.07625,8.77991l1.58605,0c0.36819,-3.17209 0.93464,-6.34419 1.69933,-9.45964c-2.01088,-0.93464 -2.6623,-5.01305 -2.74726,-8.94983l-0.00001,-0.00001z" fill="#B8C4C2" id="svg_2"/>
   <path d="m34.37129,54.11855l0,0c-1.62111,-0.75182 -2.09099,-4.25246 -2.16147,-7.51817c0.3994,-5.40368 0.51687,-10.80737 0.35241,-16.23455c-0.09398,-2.81932 0.04699,-26.26661 -0.70483,-29.69678c0.51687,1.15122 1.10423,2.27895 1.73858,3.38318c1.73858,2.70184 8.52842,6.50792 11.77064,20.86293c2.53738,14.7779 -5.26272,25.23286 -10.99533,29.2034l0,-0.00001z" fill="#12924F" id="svg_3"/>
  </g>
 </g>
</svg>