<svg width="40" height="40" xmlns="http://www.w3.org/2000/svg" xmlns:svg="http://www.w3.org/2000/svg">
 <title>MongoDB</title>
 <g class="layer">
  <title>Layer 1</title>
  <g id="svg_4">
   <path d="m28.45562,15.70048c-2.05828,-8.93882 -6.35126,-11.32055 -7.43921,-12.99658c-0.45577,-0.7498 -0.85272,-1.51431 -1.19086,-2.30821c-0.0588,0.79391 -0.16172,1.29378 -0.85272,1.89656c-1.38199,1.20556 -7.21869,5.89551 -7.71856,16.05459c-0.45577,9.46809 7.07167,15.30479 8.0714,15.90758c0.7645,0.36755 1.69073,0 2.1465,-0.33815c3.6314,-2.45523 8.58597,-8.98293 6.98346,-18.21579" fill="#10AA50" id="svg_1"/>
   <path d="m20.11872,28.1379c-0.22933,2.78722 -0.40573,4.41016 -1.00552,5.99781c0,0 0.40573,2.66373 0.67035,5.4686l0.98788,0c0.22933,-1.97575 0.58214,-3.9515 1.05843,-5.89197c-1.25248,-0.58214 -1.65822,-3.1224 -1.71114,-5.57443l-0.00001,-0.00001l0.00001,0z" fill="#B8C4C2" id="svg_2"/>
   <path d="m21.47697,33.77662l0,0c-1.00971,-0.46827 -1.30238,-2.64866 -1.34628,-4.68272c0.24877,-3.3657 0.32193,-6.73141 0.2195,-10.11175c-0.05854,-1.75602 0.02927,-16.36025 -0.43901,-18.49675c0.32193,0.71704 0.68777,1.41945 1.08288,2.10723c1.08288,1.68285 5.31196,4.05348 7.33139,12.99455c1.58042,9.20447 -3.2779,15.71638 -6.84848,18.18944l0,-0.00001z" fill="#12924F" id="svg_3"/>
  </g>
 </g>
</svg>