<svg width="40" height="40" xmlns="http://www.w3.org/2000/svg" xmlns:svg="http://www.w3.org/2000/svg" preserveAspectRatio="xMidYMid">
 <g class="layer">
  <title>Layer 1</title>
  <g id="svg_3">
   <path d="m36.70204,30.64554c-2.15803,-0.05381 -3.83054,0.16212 -5.2333,0.75545c-0.40463,0.16179 -1.05211,0.16195 -1.10609,0.67439c0.21594,0.21594 0.24285,0.56659 0.4317,0.86325c0.32391,0.53933 0.89016,1.26788 1.40276,1.6456c0.56641,0.43154 1.133,0.86308 1.72633,1.2408c1.05211,0.64748 2.23909,1.02503 3.26412,1.6725c0.59366,0.37738 1.18681,0.86325 1.7803,1.26788c0.29684,0.2156 0.48553,0.56641 0.86325,0.70129l0,-0.08089c-0.18886,-0.24285 -0.24285,-0.59349 -0.43154,-0.86325c-0.26959,-0.26975 -0.53951,-0.5126 -0.80926,-0.78235c-0.78235,-1.05194 -1.75341,-1.96916 -2.80551,-2.72444c-0.86308,-0.5935 -2.75152,-1.40276 -3.10218,-2.40088c0,0 -0.02707,-0.02691 -0.05398,-0.05381c0.59349,-0.05398 1.29478,-0.26975 1.86137,-0.43171c0.91723,-0.24285 1.75341,-0.18886 2.69753,-0.43154c0.43154,-0.10797 0.86325,-0.24285 1.29479,-0.37772l0,-0.24268c-0.48535,-0.48569 -0.83617,-1.133 -1.34877,-1.59162c-1.37568,-1.18715 -2.88641,-2.3469 -4.45094,-3.31795c-0.83634,-0.53951 -1.91536,-0.89033 -2.80551,-1.34877c-0.32356,-0.16212 -0.86325,-0.24285 -1.05194,-0.5126c-0.48569,-0.59349 -0.75545,-1.37568 -1.10609,-2.07714c-0.78201,-1.48381 -1.53764,-3.12908 -2.21201,-4.69362c-0.48535,-1.05211 -0.78218,-2.10422 -1.37568,-3.07525c-2.77842,-4.58581 -5.79971,-7.36425 -10.43951,-10.08887c-0.99812,-0.56642 -2.18493,-0.80926 -3.45281,-1.10592c-0.67421,-0.02708 -1.34877,-0.08089 -2.02316,-0.10797c-0.43154,-0.18886 -0.86325,-0.70129 -1.24097,-0.94414c-1.53728,-0.97122 -5.50288,-3.07509 -6.63588,-0.29666c-0.72837,1.75341 1.07902,3.47972 1.69941,4.37004c0.45879,0.6204 1.05211,1.32169 1.37585,2.02317c0.18886,0.45827 0.24268,0.94414 0.43154,1.42966c0.43171,1.18664 0.83617,2.50867 1.40276,3.61478c0.29683,0.56642 0.6204,1.15991 0.99812,1.67233c0.21577,0.29666 0.59332,0.43171 0.67439,0.91723c-0.37755,0.53951 -0.40463,1.34877 -0.62057,2.02316c-0.97104,3.04818 -0.59332,6.82474 0.78235,9.06366c0.43154,0.67421 1.45673,2.1582 2.83242,1.59162c1.21389,-0.48552 0.94414,-2.02316 1.29478,-3.37193c0.08106,-0.32391 0.02708,-0.53951 0.18886,-0.75528c0.00014,0.02691 0,0.05398 0,0.05398c0.37772,0.75528 0.75528,1.48365 1.10592,2.23891c0.83634,1.32169 2.29291,2.69754 3.5068,3.61478c0.64765,0.48535 1.16008,1.32169 1.96933,1.61853l0,-0.08106l-0.05398,0c-0.16195,-0.24285 -0.40463,-0.35064 -0.6204,-0.53951c-0.48552,-0.48552 -1.0252,-1.07902 -1.40276,-1.61853c-1.13283,-1.51073 -2.13113,-3.18306 -3.02127,-4.90955c-0.43154,-0.83617 -0.80926,-1.75341 -1.15991,-2.58957c-0.16195,-0.32391 -0.16195,-0.80926 -0.43171,-0.97104c-0.40463,0.59332 -0.99795,1.10592 -1.29478,1.83429c-0.51226,1.15991 -0.56642,2.58957 -0.75528,4.07321c-0.1078,0.02708 -0.05398,0 -0.10797,0.05398c-0.86308,-0.21594 -1.15991,-1.10592 -1.48365,-1.86137c-0.80926,-1.91518 -0.94414,-4.99045 -0.24268,-7.20229c0.18886,-0.56658 0.99812,-2.3469 0.67439,-2.88641c-0.16179,-0.5126 -0.70146,-0.80926 -0.99812,-1.21389c-0.35064,-0.5126 -0.72837,-1.15991 -0.97104,-1.72649c-0.64748,-1.51056 -0.97122,-3.18306 -1.6725,-4.69379c-0.32374,-0.70146 -0.89016,-1.42966 -1.34877,-2.07697c-0.51243,-0.72837 -1.07901,-1.24097 -1.48365,-2.10422c-0.13471,-0.29666 -0.32374,-0.78218 -0.10797,-1.10592c0.05398,-0.21577 0.16179,-0.29666 0.37772,-0.35065c0.35065,-0.29683 1.34877,0.08089 1.69941,0.24268c0.99812,0.40446 1.83429,0.78235 2.67063,1.34877c0.37755,0.26975 0.78218,0.78235 1.2677,0.91723l0.56658,0c0.86325,0.18869 1.83429,0.05398 2.64355,0.29667c1.42983,0.45844 2.72444,1.133 3.88453,1.86137c3.53388,2.23891 6.44701,5.42215 8.41636,9.22562c0.32374,0.62023 0.45844,1.18699 0.75528,1.83429c0.56658,1.32186 1.26788,2.67063 1.83429,3.96542c0.56641,1.2677 1.10592,2.56266 1.91518,3.61478c0.40481,0.56625 2.02316,0.86308 2.75152,1.15991c0.53951,0.24268 1.37585,0.45862 1.86137,0.75528c0.91706,0.56624 1.83429,1.21389 2.69754,1.83429c0.4317,0.32356 1.7803,0.99812 1.86137,1.53746l0.00001,0l0,0l0,-0.00003z" fill="#00546B" id="svg_1"/>
   <path d="m9.18684,7.20383c-0.45862,0 -0.78218,0.05416 -1.10592,0.13505c0,-0.00014 0,0.02708 0,0.05398l0.05398,0c0.21594,0.43154 0.59332,0.72837 0.86308,1.10592c0.21594,0.43154 0.40463,0.86325 0.62057,1.29495c0.02691,-0.02708 0.05381,-0.05398 0.05381,-0.05398c0.37789,-0.26993 0.56658,-0.70146 0.56658,-1.34877c-0.16196,-0.18886 -0.18886,-0.37772 -0.32374,-0.56658c-0.16179,-0.26993 -0.5126,-0.40463 -0.72837,-0.62057l0,0l0,0l0.00001,0z" fill="#00546B" id="svg_2"/>
  </g>
 </g>
</svg>