<svg width="40" height="40" xmlns="http://www.w3.org/2000/svg" xmlns:svg="http://www.w3.org/2000/svg">
 <defs>
  <clipPath id="a">
   <path d="m239.03,226.605l-42.13,24.317c-1.578,0.91 -2.546,2.59 -2.546,4.406l0,48.668c0,1.817 0.968,3.496 2.546,4.406l42.133,24.336c1.575,0.907 3.517,0.907 5.09,0l42.126,-24.336c1.57,-0.91 2.54,-2.59 2.54,-4.406l0,-48.668c0,-1.816 -0.97,-3.496 -2.55,-4.406l-42.12,-24.317c-0.79,-0.453 -1.67,-0.68 -2.55,-0.68c-0.88,0 -1.76,0.227 -2.55,0.68" id="svg_1"/>
  </clipPath>
  <clipPath id="c">
   <path d="m195.398,307.086c0.403,0.523 0.907,0.976 1.5,1.316l36.14,20.875l6.02,3.46c0.9,0.52 1.926,0.74 2.934,0.665c0.336,-0.027 0.672,-0.09 1,-0.183l44.434,-81.36c-0.34,-0.37 -0.738,-0.68 -1.184,-0.94l-27.586,-15.93l-14.582,-8.39c-0.414,-0.24 -0.863,-0.41 -1.32,-0.53l-47.356,81.017zm0,0" id="svg_2"/>
  </clipPath>
  <clipPath id="e">
   <path d="m241.066,225.953c-0.707,0.07 -1.398,0.29 -2.035,0.652l-42.01,24.247l45.3,82.51c0.63,-0.09 1.25,-0.3 1.81,-0.624l42.13,-24.336c1.3,-0.754 2.19,-2.03 2.46,-3.476l-46.18,-78.89c-0.34,-0.067 -0.68,-0.102 -1.03,-0.102c-0.14,0 -0.28,0.007 -0.42,0.02" id="svg_3"/>
  </clipPath>
 </defs>
 <g class="layer">
  <title>Layer 1</title>
  <g clip-path="url(#a)" id="svg_8" transform="translate(-78.306 -164.016)"/>
  <g clip-path="url(#c)" id="svg_10" transform="translate(-78.306 -164.016)"/>
  <g clip-path="url(#e)" id="svg_12"/>
  <path d="m35.58642,21.88837c0.02683,-0.01583 0.06047,-0.01583 0.08766,0l0.72723,0.41952c0.02719,0.01574 0.04383,0.04472 0.04383,0.07603l0,0.83994c0,0.03131 -0.01664,0.06029 -0.04383,0.07603l-0.72723,0.41952c-0.02719,0.01583 -0.06083,0.01583 -0.08766,0l-0.72678,-0.41952c-0.02773,-0.01574 -0.04472,-0.04472 -0.04472,-0.07603l0,-0.83994c0,-0.03131 0.0161,-0.06029 0.04383,-0.07603l0.72768,-0.41952zm0,0" fill="#689f63" fill-rule="evenodd" id="svg_7"/>
  <g id="svg_11">
   <path d="m8.70703,20.47964c0,-0.16459 -0.08677,-0.31576 -0.22881,-0.39761l-3.78874,-2.1799c-0.06396,-0.03757 -0.13561,-0.05725 -0.20824,-0.05993l-0.03918,0c-0.07263,0.00268 -0.14428,0.02236 -0.20931,0.05993l-3.78857,2.1799c-0.14115,0.08229 -0.22917,0.23346 -0.22917,0.39805l0.00832,5.8715c0,0.0814 0.04204,0.15743 0.1136,0.19768c0.06977,0.04294 0.15743,0.04294 0.2272,0l2.25235,-1.28987c0.14223,-0.08462 0.22899,-0.23418 0.22899,-0.39716l0,-2.74298c0,-0.16369 0.08677,-0.31486 0.22854,-0.39626l0.9589,-0.55226c0.0712,-0.04115 0.14938,-0.06154 0.22899,-0.06154c0.07836,0 0.15833,0.02022 0.22756,0.06145l0.95846,0.55209c0.14187,0.0814 0.22899,0.23257 0.22899,0.39626l0,2.74281c0,0.1628 0.08793,0.31307 0.22944,0.39716l2.25092,1.28897c0.07067,0.04204 0.15859,0.04204 0.22899,0c0.06941,-0.04025 0.11342,-0.11628 0.11342,-0.19768l0.00733,-5.8706zm17.87819,3.05704c0,0.04088 -0.02174,0.07872 -0.05725,0.09893l-1.30132,0.75013c-0.03533,0.02031 -0.07898,0.02031 -0.11423,0l-1.3015,-0.75013c-0.03578,-0.02031 -0.05725,-0.05814 -0.05725,-0.09893l0,-1.5024c0,-0.04097 0.02147,-0.07872 0.05635,-0.09929l1.3006,-0.75138c0.03578,-0.02057 0.07961,-0.02057 0.11539,0l1.3015,0.75138c0.03578,0.02057 0.05725,0.05832 0.05725,0.09929l0.00045,1.5024zm0.35154,-11.12776c-0.07102,-0.03954 -0.15743,-0.03846 -0.22756,0.00242c-0.06977,0.04115 -0.11289,0.11628 -0.11289,0.19768l0,5.81425c0,0.05725 -0.03041,0.11002 -0.07997,0.13865c-0.0492,0.02862 -0.11047,0.02862 -0.16012,0l-0.94906,-0.54663c-0.14133,-0.08176 -0.3154,-0.08176 -0.45727,0l-3.79,2.18732c-0.1416,0.0814 -0.22899,0.23257 -0.22899,0.39537l0,4.37589c0,0.16369 0.08739,0.31397 0.22899,0.39626l3.79,2.18884c0.14151,0.0814 0.31576,0.0814 0.45772,0l3.79,-2.18974c0.14133,-0.08229 0.22899,-0.23257 0.22899,-0.39626l0,-10.90574c0,-0.16602 -0.09034,-0.31871 -0.23525,-0.39984l-2.25459,-1.25847zm12.62077,9.58582c0.14079,-0.08176 0.22747,-0.23275 0.22747,-0.39555l0,-1.06052c0,-0.16316 -0.08677,-0.3137 -0.22783,-0.39582l-3.76584,-2.18616c-0.14223,-0.08229 -0.31665,-0.08229 -0.45888,0l-3.7891,2.18705c-0.14223,0.08229 -0.22899,0.23257 -0.22899,0.39626l0,4.3741c0,0.16459 0.08856,0.31665 0.23078,0.39805l3.76495,2.14591c0.13865,0.07961 0.3086,0.0805 0.44904,0.00268l2.2774,-1.26572c0.07156,-0.04025 0.11718,-0.11628 0.11718,-0.19858c0,-0.08229 -0.04383,-0.15922 -0.11539,-0.19947l-3.81236,-2.18795c-0.07156,-0.04025 -0.11539,-0.11628 -0.11539,-0.19768l0,-1.37216c0,-0.08194 0.04294,-0.15743 0.1145,-0.19822l1.18611,-0.68429c0.07067,-0.04115 0.15743,-0.04115 0.2281,0l1.187,0.68429c0.07067,0.04025 0.1145,0.11628 0.1145,0.19768l0,1.07877c0,0.0814 0.04383,0.15743 0.1145,0.19858c0.07067,0.04025 0.15833,0.04025 0.22899,-0.00089l2.27328,-1.32037zm0,0" fill="#333" fill-rule="evenodd" id="svg_6"/>
   <g id="svg_9">
    <path d="m15.39679,24.69316c-1.56359,0 -1.89142,-0.71775 -1.89142,-1.31975c0,-0.05725 0.04616,-0.10287 0.10349,-0.10287l0.46156,0c0.05099,0 0.09392,0.03712 0.10197,0.08748c0.06977,0.47033 0.27729,0.70755 1.22278,0.70755c0.75317,0 1.0734,-0.17013 1.0734,-0.56953c0,-0.22989 -0.09124,-0.40074 -1.26124,-0.51523c-0.97858,-0.09661 -1.58326,-0.31218 -1.58326,-1.09487c0,-0.72097 0.60826,-1.15033 1.6271,-1.15033c1.14407,0 1.71118,0.39716 1.78274,1.25051c0.00268,0.02952 -0.00805,0.05814 -0.02773,0.07961c-0.01968,0.02057 -0.04741,0.0331 -0.07603,0.0331l-0.46425,0c-0.0483,0 -0.09034,-0.03399 -0.10018,-0.0805c-0.11181,-0.49466 -0.38195,-0.65298 -1.11634,-0.65298c-0.82205,0 -0.91776,0.28624 -0.91776,0.50092c0,0.2603 0.11271,0.33633 1.22189,0.48303c1.09845,0.1458 1.61994,0.35154 1.61994,1.12349c0,0.77821 -0.64941,1.22457 -1.78184,1.22457m4.35264,-4.37321l0.11986,0c0.09839,0 0.11718,-0.06888 0.11718,-0.10913c0,-0.10555 -0.07245,-0.10555 -0.11271,-0.10555l-0.12344,0l-0.00089,0.21468zm-0.1458,-0.33812l0.26567,0c0.09124,0 0.27014,0 0.27014,0.20395c0,0.14223 -0.09124,0.17174 -0.1458,0.18963c0.10645,0.00716 0.1136,0.07693 0.12791,0.17532c0.00716,0.06172 0.01878,0.16817 0.04025,0.20395l-0.16369,0c-0.00447,-0.03578 -0.02952,-0.23257 -0.02952,-0.2433c-0.01073,-0.04383 -0.02594,-0.0653 -0.0805,-0.0653l-0.13507,0l0,0.3095l-0.14938,0l0,-0.77374zm-0.31934,0.38463c0,0.32023 0.25851,0.57964 0.57606,0.57964c0.32023,0 0.57874,-0.26477 0.57874,-0.57964c0,-0.32113 -0.26209,-0.57606 -0.57964,-0.57606c-0.31307,0 -0.57606,0.25135 -0.57606,0.57516m1.26661,0.00268c0,0.37927 -0.31039,0.68876 -0.68876,0.68876c-0.37569,0 -0.68876,-0.30592 -0.68876,-0.68876c0,-0.39 0.32023,-0.68876 0.68876,-0.68876c0.37122,0 0.68787,0.29966 0.68787,0.68876" fill="#689f63" id="svg_5"/>
    <path d="m14.29298,27.53463c-0.1306,0 -0.2603,-0.03426 -0.3748,-0.10018l-1.19299,-0.7063c-0.17818,-0.09965 -0.09124,-0.13489 -0.03247,-0.1552c0.23758,-0.08319 0.28579,-0.10197 0.53938,-0.24599c0.02666,-0.01521 0.06154,-0.00984 0.08882,0.00626l0.9165,0.54386c0.0331,0.01789 0.08006,0.01789 0.11074,0l3.57353,-2.06272c0.0331,-0.01878 0.05456,-0.05725 0.05456,-0.09661l0,-4.12364c0,-0.04115 -0.02147,-0.07782 -0.05528,-0.09839l-3.5721,-2.06093c-0.0331,-0.01968 -0.07693,-0.01968 -0.11002,0l-3.57138,2.06093c-0.03462,0.01968 -0.05662,0.05814 -0.05662,0.0975l0,4.12364c0,0.03936 0.02147,0.07693 0.05546,0.09571l0.97858,0.56532c0.53133,0.26567 0.85604,-0.04741 0.85604,-0.36227l0,-4.06997c0,-0.05814 0.04562,-0.10287 0.10376,-0.10287l0.45262,0c0.05635,0 0.10287,0.04472 0.10287,0.10287l0,4.07176c0,0.70844 -0.38642,1.11544 -1.05819,1.11544c-0.20663,0 -0.36943,0 -0.82383,-0.22362l-0.93744,-0.54028c-0.23168,-0.13417 -0.3748,-0.38463 -0.3748,-0.65209l0,-4.12364c0,-0.26835 0.14312,-0.51881 0.3748,-0.6512l3.57711,-2.06361c0.22631,-0.12791 0.52686,-0.12791 0.75138,0l3.57263,2.06451c0.23078,0.13328 0.3748,0.38285 0.3748,0.6512l0,4.12364c0,0.26746 -0.14401,0.51702 -0.3748,0.6512l-3.57263,2.06361c-0.1145,0.06619 -0.2442,0.10018 -0.37658,0.10018" fill="#689f63" id="svg_4"/>
   </g>
  </g>
 </g>
</svg>