<svg width="40" height="40" xmlns="http://www.w3.org/2000/svg" xmlns:svg="http://www.w3.org/2000/svg">
 <g class="layer">
  <title>Layer 1</title>
  <g clip-rule="nonzero" fill-rule="nonzero" id="orginal" stroke="#000000" stroke-miterlimit="1"/>
  <g clip-rule="nonzero" fill="none" fill-rule="nonzero" id="Layer_x0020_3" stroke="#FFFFFF" stroke-linecap="round" stroke-linejoin="round" stroke-miterlimit="4">
   <path d="m30.11711,28.8193c0.24633,-2.0521 0.17251,-2.35303 1.701,-2.02063l0.38805,0.03409c1.1753,0.05347 2.71274,-0.18902 3.61599,-0.60865c1.94437,-0.90218 3.09733,-2.4085 1.18008,-2.01271c-4.37332,0.90218 -4.67399,-0.57864 -4.67399,-0.57864c4.61798,-6.8519 6.54845,-15.54975 4.88214,-17.6788c-4.54486,-5.80729 -12.41191,-3.06115 -12.54355,-2.98985l-0.0419,0.00774c-0.8641,-0.17929 -1.83116,-0.28641 -2.91751,-0.30397c-1.97906,-0.03252 -3.48077,0.51883 -4.6199,1.38285c0,0 -14.03439,-5.78198 -13.38148,7.27144c0.13886,2.77683 3.98029,21.01185 8.56195,15.50401c1.67457,-2.01402 3.29287,-3.71693 3.29287,-3.71693c0.80359,0.53387 1.76569,0.8062 2.77474,0.70837l0.07799,-0.06652c-0.02444,0.25007 -0.01365,0.49466 0.03122,0.78419c-1.18008,1.31877 -0.83332,1.55032 -3.19306,2.03602c-2.38738,0.49204 -0.9848,1.36807 -0.0693,1.59701c1.11018,0.27763 3.67841,0.67091 5.41419,-1.75847l-0.06912,0.27719c0.46301,0.37041 0.43171,2.66231 0.49735,4.29984c0.06574,1.63761 0.17538,3.16575 0.50918,4.06673c0.33381,0.9008 0.72768,3.22149 3.82891,2.55684c2.59188,-0.55544 4.57356,-1.35484 4.75415,-8.79123" fill="#000000" id="svg_1" stroke="#000000" stroke-width="3"/>
   <path d="m37.00266,24.21122c-4.37374,0.90218 -4.67442,-0.57864 -4.67442,-0.57864c4.61798,-6.85234 6.54845,-15.55035 4.88249,-17.67915c-4.54486,-5.80694 -12.41226,-3.06063 -12.54355,-2.98933l-0.04225,0.00756c-0.8641,-0.17937 -1.83116,-0.28624 -2.91804,-0.30397c-1.97906,-0.03243 -3.48025,0.51883 -4.61938,1.38267c0,0 -14.03465,-5.78173 -13.38191,7.27161c0.13886,2.77701 3.98021,21.01202 8.56203,15.50419c1.67465,-2.01402 3.2927,-3.71693 3.2927,-3.71693c0.80367,0.53387 1.76577,0.8062 2.77439,0.70837l0.07834,-0.06652c-0.02434,0.25007 -0.01322,0.49466 0.03138,0.78419c-1.18034,1.31877 -0.8335,1.55032 -3.19306,2.03602c-2.38755,0.49204 -0.98496,1.36807 -0.06921,1.59701c1.11018,0.27763 3.67859,0.67091 5.41401,-1.75847l-0.06921,0.27719c0.46249,0.37041 0.78725,2.40947 0.73281,4.25784c-0.05443,1.84846 -0.09078,3.11749 0.27362,4.10873c0.36441,0.99123 0.7276,3.22149 3.82944,2.55684c2.59188,-0.55544 3.935,-1.9948 4.12185,-4.39574c0.1326,-1.70691 0.43266,-1.45459 0.45161,-2.98064l0.24067,-0.72246c0.27754,-2.31382 0.04409,-3.06028 1.64092,-2.71309l0.38805,0.03409c1.1753,0.05347 2.71353,-0.18902 3.61632,-0.60865c1.94402,-0.90218 3.09698,-2.4085 1.18016,-2.01271l0.00017,0l-0.00001,0l0.00005,-0.00001z" fill="#336791" id="svg_2"/>
   <path d="m20.78401,25.53757c-0.12043,4.30541 0.03026,8.64081 0.45153,9.69446c0.42153,1.05365 1.32364,3.10306 4.42574,2.4385c2.59163,-0.55561 3.53459,-1.63083 3.94378,-4.00412c0.30137,-1.74612 0.88236,-6.59549 0.95689,-7.58906" id="svg_3"/>
   <path d="m17.06587,3.9542c0,0 -14.04421,-5.74008 -13.3913,7.31326c0.13886,2.77701 3.98047,21.01263 8.5622,15.50454c1.6743,-2.01428 3.18854,-3.59407 3.18854,-3.59407" id="svg_4"/>
   <path d="m24.65179,2.90654c-0.48613,0.15243 7.81226,-3.03359 12.52833,2.99255c1.66587,2.12888 -0.26459,10.8269 -4.88249,17.67942" id="svg_5"/>
   <path d="m32.29755,23.57849c0,0 0.30093,1.48128 4.67477,0.57848c1.91637,-0.3958 0.76308,1.1107 -1.18051,2.01332c-1.5951,0.74029 -5.17125,0.93001 -5.22968,-0.09295c-0.15034,-2.63935 1.8822,-1.8375 1.73552,-2.49884c-0.1326,-0.59561 -1.04157,-1.18016 -1.64282,-2.63788c-0.52491,-1.27234 -7.19909,-11.02949 1.8509,-9.58038c0.33153,-0.06861 -2.36034,-8.6082 -10.82986,-8.74706c-8.46761,-0.13886 -8.1898,10.41328 -8.1898,10.41328" id="svg_6" stroke-linejoin="bevel"/>
   <path d="m18.41358,24.48112c-1.18051,1.31868 -0.83332,1.55022 -3.19306,2.0361c-2.38755,0.49214 -0.9848,1.36798 -0.0693,1.59683c1.11018,0.27781 3.67859,0.67108 5.41401,-1.75891c0.52848,-0.73986 -0.00314,-1.92037 -0.72907,-2.2213c-0.35076,-0.1453 -0.81977,-0.32736 -1.42258,0.34727l0,0.00001z" id="svg_7"/>
   <path d="m18.33629,24.45808c-0.11894,-0.77533 0.25476,-1.69796 0.65525,-2.77736c0.60186,-1.61953 1.99055,-3.23932 0.87966,-8.37665c-0.82803,-3.82831 -6.38176,-0.79673 -6.38525,-0.27763c-0.00339,0.51892 0.2512,2.63109 -0.09278,5.09074c-0.44883,3.20957 2.04228,5.92406 4.91084,5.64634" id="svg_8"/>
   <path d="m17.01482,12.94862c-0.02504,0.17729 0.32458,0.65038 0.78045,0.7136c0.4551,0.06347 0.84462,-0.30624 0.86933,-0.48335c0.02469,-0.17729 -0.3245,-0.37258 -0.78055,-0.43605c-0.45535,-0.06357 -0.84506,0.02895 -0.86915,0.20581l-0.00008,0l0,-0.00001z" fill="#FFFFFF" id="svg_9"/>
   <path d="m30.87671,12.58717c0.02469,0.17729 -0.3245,0.65038 -0.78045,0.7136c-0.45545,0.06347 -0.84497,-0.30624 -0.86993,-0.48335c-0.02409,-0.17729 0.32519,-0.37258 0.78072,-0.43605c0.45553,-0.06347 0.84497,0.02895 0.86968,0.20589l0,-0.00008l-0.00001,-0.00001z" fill="#FFFFFF" id="svg_10"/>
   <path d="m32.5057,11.36023c0.07504,1.39068 -0.29954,2.33791 -0.34676,3.81831c-0.06991,2.15183 1.02592,4.61478 -0.62525,7.08075" id="svg_11"/>
   <path d="m2.01451,5.865" id="svg_12"/>
  </g>
 </g>
</svg>