<svg width="40" height="40" xmlns="http://www.w3.org/2000/svg" xmlns:svg="http://www.w3.org/2000/svg">
 <g class="layer">
  <title>Layer 1</title>
  <rect fill="black" height="0.13333" id="svg_9" width="0" x="-53.73333" y="-19.93333"/>
  <g id="svg_1">
   <path d="m20,20c0,-5.43379 2.2831,-10 5,-10l15,0l0,10l0,0l0,10l-15,0c-2.7169,0 -5,-4.56621 -5,-10l0,0l0,0l0,0z" fill="#ffd94a" id="svg_13" transform="rotate(180 30 20)"/>
   <path d="m0,20c0,-5.43379 2.2831,-10 5,-10l15,0l0,10l0,0l0,10l-15,0c-2.7169,0 -5,-4.56621 -5,-10l0,0l0,0l0,0z" fill="#4483b5" id="svg_8"/>
   <path d="m10.01386,10.01386c0,-5.43379 2.2831,-10 5,-10c5,0 13.43449,-0.51261 14.28235,2.87062l0.71765,7.12938l0,0l0,10l-15,0c-2.7169,0 -5,-4.56621 -5,-10l0,0l0,0l0,0z" fill="#4483b5" id="svg_10" transform="rotate(90 20.0139 10)"/>
   <path d="m9.99983,30.00017c0,-5.43379 2.2831,-10 5,-10c2.5,0 5,0 7.5,0c2.5,0 5.51261,-0.10252 7.14117,3.22944l0.35883,6.77056c0,0 0,0 0,0l0,10l-15,0c-2.7169,0 -5,-4.56621 -5,-10l0,0l0,0c0,0 0,0 0,0z" fill="#ffd94a" id="svg_12" transform="rotate(-90 19.9998 30)"/>
   <circle cx="14.5" cy="5" fill="white" id="svg_14" r="1.85"/>
   <line id="svg_15" stroke="white" x1="10" x2="20" y1="9.5" y2="9.5"/>
   <circle cx="25" cy="35" fill="white" id="svg_16" r="1.85"/>
   <line id="svg_17" stroke="white" x1="20" x2="30" y1="30.5" y2="30.5"/>
   <path d="m9.5,30c0,-10 2.5,-10 10,-10c8.5,0 11,0 11,-10" fill="none" id="svg_11" stroke="white"/>
  </g>
 </g>
</svg>