<svg width="40" height="40" xmlns="http://www.w3.org/2000/svg" xmlns:svg="http://www.w3.org/2000/svg">
 <title>socket-io</title>
 <g class="layer">
  <title>Layer 1</title>
  <path d="m19.89769,0.25409c-1.6544,0.00618 -3.30138,0.21251 -4.90388,0.62395c-7.7098,1.91757 -13.82946,8.89963 -14.61403,16.81948c-0.97237,7.49111 2.81828,15.29729 9.29748,19.16454c6.36553,3.9834 14.98099,3.82401 21.21061,-0.36572c5.59949,-3.63621 9.08002,-10.25873 8.87492,-16.9455c-0.09514,-6.61387 -3.80919,-13.04365 -9.49269,-16.4414c-3.09504,-1.91139 -6.73619,-2.87017 -10.3724,-2.85658l0,0.00124zm-0.10996,2.79233c8.14595,-0.01359 16.12634,6.28645 16.94303,14.70422c1.55802,9.32466 -6.1839,18.80376 -15.63088,19.08053c-8.98365,0.89453 -17.672,-6.72507 -17.929,-15.74702c-0.66843,-7.30331 4.15143,-14.55596 11.03589,-16.97021c1.77548,-0.70673 3.66833,-1.06751 5.57972,-1.06133l0.00124,-0.00618zm8.39182,5.31655c-4.42819,3.43482 -8.66859,7.09697 -12.99917,10.63681c1.98181,0.02471 3.97722,0.02471 5.96521,0.01112c2.32283,-3.56455 4.71113,-7.08338 7.03396,-10.64916l0,0.00124zm-9.33084,12.60627c-2.32283,3.57196 -4.71608,7.09697 -7.04137,10.66893c4.44179,-3.42987 8.66241,-7.11674 13.01894,-10.63681c-1.99541,-0.02471 -3.98958,-0.03089 -5.9788,-0.03089l0.00124,-0.00124z" fill="black" id="svg_1"/>
 </g>
</svg>