<svg width="40" height="40" xmlns="http://www.w3.org/2000/svg" xmlns:svg="http://www.w3.org/2000/svg">
 <title>MongoDB</title>
 <g class="layer">
  <title>Layer 1</title>
  <g id="svg_8">
   <ellipse cx="19.92532" cy="3.00461" fill="#007fff" id="svg_1" rx="14.18848" ry="2.8377" stroke="#000000" stroke-width="0"/>
   <path d="m5.88619,4.42346c2.34903,2.09711 10.10491,2.78768 14.18848,2.776c4.08357,-0.01168 12.13581,-0.75908 14.18848,-2.776l0,9.93194c-2.38531,1.97562 -9.54124,2.76654 -14.18848,2.776c-4.64724,0.00945 -12.19388,-0.58695 -14.12679,-2.776l-0.06169,-9.93194z" fill="#007fff" id="svg_4" stroke="#000000" stroke-width="0"/>
   <path d="m5.81152,15.77425c2.34903,2.09711 10.10491,2.78768 14.18848,2.776c4.08357,-0.01168 12.13581,-0.75908 14.18848,-2.776l0,9.93194c-2.38531,1.97562 -9.54124,2.76654 -14.18848,2.776c-4.64724,0.00945 -12.19388,-0.58695 -14.12679,-2.776l-0.06169,-9.93194z" fill="#007fff" id="svg_5" stroke="#000000" stroke-width="0"/>
   <path d="m5.81152,27.12503c2.34903,2.09711 10.10491,2.78768 14.18848,2.776c4.08357,-0.01168 12.13581,-0.75908 14.18848,-2.776l0,9.93194c-2.38531,1.97562 -9.54124,2.76654 -14.18848,2.776c-4.64724,0.00945 -12.19388,-0.58695 -14.12679,-2.776l-0.06169,-9.93194z" fill="#007fff" id="svg_6" stroke="#000000" stroke-width="0"/>
   <text fill="#ffffff" font-family="serif" font-size="6" id="svg_7" stroke="#000000" stroke-width="0" text-anchor="middle" transform="matrix(1.41885 0 0 1.41885 -6.97796 -11.1816)" x="19.01768" xml:space="preserve" y="17.99837">SQL</text>
  </g>
 </g>
</svg>