<svg width="40" height="40" xmlns="http://www.w3.org/2000/svg" xmlns:svg="http://www.w3.org/2000/svg" xmlns:xlink="http://www.w3.org/1999/xlink">
 <metadata id="metadata2991">image/svg+xml</metadata>
 <defs>
  <linearGradient gradientTransform="matrix(-4.02e-6,-91.8907,-91.8907,4.02e-6,85.8809,161.434)" gradientUnits="userSpaceOnUse" id="linearGradient3027" spreadMethod="pad" x1="0" x2="1" y1="0" y2="0">
   <stop id="stop3029" offset="0" stop-color="#97d9f6"/>
   <stop id="stop3031" offset="0.92024" stop-color="#0f80cc"/>
   <stop id="stop3033" offset="1" stop-color="#0f80cc"/>
  </linearGradient>
  <linearGradient id="linearGradient3003" spreadMethod="pad" x1="0.57662" x2="0.57662" xlink:href="#linearGradient3027" y1="0.97954" y2="0.05561"/>
 </defs>
 <g class="layer">
  <title>Layer 1</title>
  <g id="g2993" transform="matrix(0.198021 0 0 -0.198021 8.66246 273.852)">
   <g id="g2998" transform="matrix(1.55124 0 0 1.55124 -16.326 -27.7183)">
    <path d="m52.55231,809.40206c-0.057,0.7219 -0.091,1.191 -0.091,1.191c0,0 -2.189,14.7578 -4.7948,19.1617c-0.4122,0.6981 0.0449,3.5653 1.1953,7.8121c0.6725,-1.1629 3.5115,-6.1371 4.0815,-7.7398c0.642,-1.8121 0.777,-2.3313 0.777,-2.3313c0,0 -1.557,8.0114 -4.112,12.6862c0.56,1.89 1.229,3.979 1.986,6.212c0.968,-1.698 3.285,-5.809 3.795,-7.235c0.103,-0.293 0.19,-0.542 0.268,-0.77c0.025,0.137 0.05,0.274 0.075,0.411c-0.585,2.482 -1.734,6.801 -3.307,9.992c3.49,18.165 15.393,42.445 27.596,53.278l-79.6048,0c-5.3352,0 -9.7004,-4.366 -9.7004,-9.701l0,-87.7892c0,-5.3347 4.3652,-9.7 9.7004,-9.7l52.4298,0c-0.378,4.5762 -0.504,9.6391 -0.294,14.5223" fill="#0f80cc" fill-rule="nonzero" id="path3005"/>
    <path d="m48.86181,837.56686c0.6725,-1.1629 3.5115,-6.1371 4.0815,-7.7398c0.642,-1.8121 0.777,-2.3313 0.777,-2.3313c0,0 -1.557,8.0114 -4.112,12.6862c0.56,1.89 1.229,3.979 1.986,6.212c0.885,-1.553 2.896,-5.12 3.623,-6.81c0.027,0.319 0.054,0.638 0.082,0.954c-0.644,2.475 -1.622,5.715 -2.874,8.254c3.214,16.725 13.559,38.625 24.704,50.448l-76.7128,0c-3.7883,0 -6.8711,-3.082 -6.8711,-6.871l0,-81.3841c17.3738,6.668 38.323,12.7633 56.3529,12.502c-0.6693,2.5812 -1.4315,4.9152 -2.2318,6.2679c-0.4122,0.6981 0.0449,3.5653 1.1953,7.8121" fill="url(#linearGradient3003)" fill-rule="nonzero" id="path3035"/>
    <path d="m98.58931,904.94296c-5.452,4.862 -12.053,2.909 -18.568,-2.873c-0.967,-0.859 -1.932,-1.812 -2.892,-2.83c-11.145,-11.823 -21.49,-33.723 -24.704,-50.448c1.252,-2.539 2.23,-5.779 2.874,-8.254c0.165,-0.635 0.314,-1.231 0.433,-1.738c0.283,-1.1999 0.435,-1.978 0.435,-1.978c0,0 -0.1,0.3781 -0.51,1.567c-0.078,0.228 -0.165,0.477 -0.268,0.77c-0.044,0.121 -0.105,0.268 -0.172,0.425c-0.727,1.69 -2.738,5.257 -3.623,6.81c-0.757,-2.233 -1.426,-4.322 -1.986,-6.212c2.555,-4.6748 4.112,-12.6862 4.112,-12.6862c0,0 -0.135,0.5192 -0.777,2.3313c-0.57,1.6027 -3.409,6.5769 -4.0815,7.7398c-1.1504,-4.2468 -1.6075,-7.114 -1.1953,-7.8121c0.8003,-1.3527 1.5625,-3.6867 2.2318,-6.2679c1.512,-5.8149 2.563,-12.8938 2.563,-12.8938c0,0 0.034,-0.4691 0.091,-1.191c-0.21,-4.8832 -0.084,-9.9461 0.294,-14.5223c0.501,-6.0578 1.444,-11.2617 2.646,-14.0468l0.816,0.4449c-1.765,5.4871 -2.482,12.6781 -2.168,20.9711c0.475,12.6761 3.392,27.9629 8.782,43.896c9.106,24.052 21.74,43.35 33.303,52.566c-10.539,-9.518 -24.803,-40.327 -29.073,-51.736c-4.781,-12.776 -8.169,-24.7651 -10.211,-36.2518c3.523,10.7687 14.914,15.3976 14.914,15.3976c0,0 5.587,6.8903 12.116,16.7342c-3.911,-0.892 -10.333,-2.419 -12.484,-3.323c-3.173,-1.331 -4.028,-1.785 -4.028,-1.785c0,0 10.278,6.259 19.096,9.093c12.127,19.1 25.339,46.234 12.034,58.103" fill="#003b57" fill-rule="nonzero" id="path3045"/>
   </g>
  </g>
 </g>
</svg>