<svg width="39.99999999999999" height="39.99999999999999" xmlns="http://www.w3.org/2000/svg" xmlns:svg="http://www.w3.org/2000/svg" preserveAspectRatio="xMidYMid">
 <g class="layer">
  <title>Layer 1</title>
  <g id="svg_1"/>
  <g id="svg_5">
   <polygon fill="#007ACC" id="svg_2" points="0.13755415380001068,19.999996095895767 0.13755415380001068,39.86244383454323 19.999998092651367,39.86244383454323 39.86244583129883,39.86244383454323 39.86244583129883,19.999996095895767 39.86244583129883,0.1375579833984375 19.999998092651367,0.1375579833984375 0.13755415380001068,0.1375579833984375 "/>
   <path d="m8.92221,20.13176l-0.01261,1.62683l2.58527,0l2.58527,0l0,7.34595l0,7.34595l1.82861,0l1.82861,0l0,-7.34595l0,-7.34595l2.58527,0l2.58527,0l0,-1.5953c0,-0.88278 -0.01892,-1.62052 -0.04414,-1.63944c-0.01892,-0.02522 -3.16538,-0.03783 -6.98023,-0.03153l-6.9424,0.01892l-0.01892,1.62052z" fill="#FFFFFF" id="svg_3"/>
   <path d="m32.1916,18.46506c1.00889,0.25222 1.77816,0.69991 2.48438,1.43136c0.36572,0.39094 0.908,1.10347 0.95214,1.27372c0.01261,0.05044 -1.71511,1.21066 -2.76182,1.86013c-0.03783,0.02522 -0.18917,-0.13872 -0.35942,-0.39094c-0.51075,-0.74405 -1.04672,-1.06564 -1.86644,-1.12238c-1.20436,-0.08197 -1.97994,0.54858 -1.97363,1.60161c0,0.30897 0.04414,0.49183 0.17025,0.74405c0.26483,0.54858 0.75666,0.87647 2.30152,1.54486c2.8438,1.22328 4.06077,2.03038 4.81743,3.17799c0.84494,1.28002 1.03411,3.32302 0.4603,4.84265c-0.63055,1.65205 -2.19433,2.77444 -4.39496,3.14646c-0.681,0.1198 -2.29522,0.10089 -3.02666,-0.03153c-1.5953,-0.28375 -3.10863,-1.07194 -4.04185,-2.10605c-0.36572,-0.40356 -1.07825,-1.45658 -1.03411,-1.53225c0.01892,-0.02522 0.18286,-0.12611 0.36572,-0.2333c0.17656,-0.10089 0.84494,-0.48553 1.4755,-0.85125l1.1413,-0.66208l0.23961,0.35311c0.33419,0.51075 1.06564,1.21066 1.50702,1.44397c1.26741,0.66839 3.00774,0.5738 3.86529,-0.19547c0.36572,-0.33419 0.51706,-0.681 0.51706,-1.19175c0,-0.4603 -0.05675,-0.66208 -0.29636,-1.00889c-0.30897,-0.44139 -0.93953,-0.81341 -2.7303,-1.589c-2.0493,-0.88278 -2.93207,-1.43136 -3.73918,-2.30152c-0.46661,-0.50444 -0.908,-1.31155 -1.09086,-1.98624c-0.15133,-0.56119 -0.18917,-1.96733 -0.06936,-2.53483c0.42247,-1.97994 1.91688,-3.36085 4.07338,-3.77071c0.69992,-0.13242 2.32674,-0.08197 3.01405,0.08828z" fill="#FFFFFF" id="svg_4"/>
  </g>
 </g>
</svg>